<svg width="211" height="324" viewBox="0 0 211 324" fill="none" xmlns="http://www.w3.org/2000/svg">
<path opacity="0.05" fill-rule="evenodd" clip-rule="evenodd" d="M-24.7546 197.938L-8.71833 170.152L22.6902 116.261C33.8194 97.9007 39.7906 83.7103 56.9893 79.5222C86.6563 71.9656 122.29 62.7211 152.803 54.8333C157.88 60.5641 164.766 64.4162 172.303 65.7412C179.839 67.0663 187.566 65.7835 194.183 62.1087C200.799 58.4338 205.902 52.5913 208.631 45.5645C211.361 38.5376 211.551 30.7555 209.169 23.5277C206.788 16.3 201.98 10.0679 195.556 5.88037C189.131 1.69286 181.481 -0.194478 173.895 0.536062C166.308 1.2666 159.247 4.57044 153.9 9.89143C148.554 15.2125 145.247 22.2258 144.538 29.7512C112.215 38.1071 78.649 46.3375 48.3262 55.462C35.4365 59.7312 19.7908 66.5978 8.8394 88.755L-46.8184 185.195L-126.362 323.022L-91.7237 314.068L-24.7546 197.938ZM161.513 24.0048C163.319 20.8712 166.03 18.3535 169.304 16.7701C172.577 15.1867 176.266 14.6086 179.903 15.1092C183.54 15.6097 186.962 17.1663 189.737 19.582C192.512 21.9978 194.515 25.1642 195.492 28.6808C196.469 32.1974 196.377 35.9063 195.227 39.3383C194.077 42.7704 191.921 45.7714 189.031 47.962C186.142 50.1525 182.649 51.4341 178.994 51.6447C175.339 51.8553 171.687 50.9854 168.498 49.1451C164.225 46.6772 161.09 42.6428 159.781 37.9289C158.471 33.2151 159.096 28.2076 161.517 24.0073L161.513 24.0048Z" fill="white"/>
</svg>
