<svg width="286" height="413" viewBox="0 0 286 413" fill="none" xmlns="http://www.w3.org/2000/svg">
<path opacity="0.05" fill-rule="evenodd" clip-rule="evenodd" d="M282.576 200.312L260.106 222.791L216.232 266.31C200.874 281.026 191.522 293.075 173.988 292.672C143.658 292.293 107.185 291.999 75.9605 291.72C72.5707 284.933 66.9677 279.48 60.0945 276.278C53.2213 273.076 45.4975 272.322 38.223 274.141C30.9485 275.961 24.5675 280.244 20.1539 286.268C15.7403 292.293 13.5635 299.692 13.99 307.221C14.4164 314.749 17.4201 321.947 22.4954 327.603C27.5707 333.259 34.4077 337.027 41.856 338.274C49.3041 339.521 56.9087 338.171 63.3898 334.45C69.8709 330.729 74.8328 324.865 77.4404 317.845C110.518 318.14 144.752 318.874 176.111 317.921C189.542 317.142 206.276 314.584 222.437 296.188L300.425 218.168L411.884 106.667L376.438 106.35L282.576 200.312ZM59.7221 318.99C57.1902 321.526 53.95 323.24 50.4113 323.915C46.8726 324.591 43.1943 324.198 39.8417 322.786C36.489 321.374 33.6126 319.006 31.5761 315.982C29.5397 312.958 28.4348 309.414 28.4011 305.798C28.3674 302.182 29.4064 298.656 31.3867 295.666C33.3671 292.676 36.1998 290.357 39.5267 289.002C42.8535 287.647 46.5251 287.316 50.077 288.053C53.6288 288.789 56.9015 290.558 59.4811 293.137C62.9378 296.595 64.9047 301.261 64.9492 306.108C64.9938 310.955 63.1123 315.588 59.7186 318.986L59.7221 318.99Z" fill="white"/>
<path opacity="0.05" fill-rule="evenodd" clip-rule="evenodd" d="M259.897 158.109L245.936 172.075L218.677 199.114C209.135 208.258 203.324 215.744 192.43 215.493C173.586 215.258 150.924 215.075 131.524 214.902C129.418 210.685 125.937 207.297 121.666 205.307C117.396 203.318 112.597 202.849 108.077 203.98C103.558 205.111 99.593 207.771 96.8507 211.515C94.1085 215.258 92.756 219.855 93.021 224.533C93.286 229.21 95.1522 233.682 98.3055 237.196C101.459 240.71 105.707 243.052 110.335 243.827C114.962 244.602 119.687 243.762 123.714 241.451C127.741 239.139 130.824 235.495 132.444 231.134C152.995 231.317 174.265 231.773 193.749 231.181C202.094 230.697 212.491 229.107 222.532 217.678L270.988 169.203L340.238 99.9254L318.215 99.7288L259.897 158.109ZM121.435 231.845C119.862 233.421 117.849 234.485 115.65 234.905C113.451 235.325 111.166 235.081 109.083 234.203C107 233.326 105.213 231.855 103.948 229.976C102.682 228.097 101.996 225.895 101.975 223.649C101.954 221.402 102.599 219.211 103.83 217.354C105.06 215.496 106.82 214.055 108.887 213.213C110.954 212.371 113.236 212.166 115.442 212.623C117.649 213.08 119.683 214.18 121.285 215.782C123.433 217.931 124.655 220.83 124.683 223.841C124.71 226.853 123.541 229.731 121.433 231.843L121.435 231.845Z" fill="white"/>
</svg>
