<svg width="555" height="166" viewBox="0 0 555 166" fill="none" xmlns="http://www.w3.org/2000/svg">
<path opacity="0.05" fill-rule="evenodd" clip-rule="evenodd" d="M112.579 22.0893H140.315L194.24 22.3183C212.797 22.7159 226.002 21.0609 236.576 32.088C255.065 50.9663 277.398 73.5692 296.501 92.9357C294.407 99.1904 294.502 105.986 296.77 112.179C299.038 118.372 303.341 123.583 308.953 126.937C314.566 130.291 321.146 131.582 327.587 130.593C334.028 129.604 339.935 126.395 344.315 121.507C348.696 116.619 351.281 110.349 351.637 103.753C351.992 97.1575 350.096 90.6385 346.268 85.2933C342.439 79.9481 336.912 76.103 330.617 74.4053C324.321 72.7075 317.641 73.2607 311.701 75.9717C291.465 55.4558 270.785 33.959 250.839 15.2665C242.068 7.48881 230.161 -1.22656 208.838 0.143187H112.574H-25.0019L-3.31666 22.1282L112.579 22.0893ZM323.345 86.1605C326.472 86.1588 329.529 87.0974 332.13 88.8577C334.731 90.6179 336.759 93.1207 337.958 96.0495C339.157 98.9784 339.472 102.202 338.864 105.312C338.256 108.422 336.752 111.279 334.542 113.522C332.332 115.765 329.516 117.293 326.45 117.913C323.383 118.533 320.204 118.216 317.315 117.004C314.425 115.791 311.955 113.737 310.216 111.101C308.478 108.466 307.549 105.366 307.548 102.196C307.547 97.9454 309.21 93.8692 312.173 90.8631C315.135 87.857 319.153 86.1671 323.345 86.1648L323.345 86.1605Z" fill="white"/>
<path opacity="0.05" fill-rule="evenodd" clip-rule="evenodd" d="M378.98 189.105L343.601 189.105L274.816 188.812C251.144 188.305 234.3 190.416 220.814 176.349C197.233 152.266 168.749 123.43 144.385 98.7241C147.057 90.7449 146.937 82.0756 144.045 74.1753C141.153 66.275 135.666 59.6261 128.507 55.3475C121.348 51.0689 112.954 49.4219 104.739 50.6836C96.5229 51.9453 88.987 56.0388 83.3989 62.2751C77.8109 68.5114 74.5119 76.5097 74.0572 84.924C73.6026 93.3383 76.0199 101.655 80.9026 108.474C85.7852 115.293 92.8349 120.198 100.865 122.364C108.896 124.53 117.416 123.824 124.993 120.366C150.803 146.538 177.178 173.962 202.617 197.809C213.804 207.731 228.992 218.849 256.19 217.102L378.982 217.102L554.471 217.102L526.813 189.055L378.98 189.105ZM110.143 107.367C106.154 107.37 102.255 106.172 98.9369 103.927C95.6192 101.681 93.0326 98.4882 91.5042 94.7518C89.9758 91.0154 89.5743 86.9033 90.3504 82.9357C91.1265 78.9681 93.0454 75.323 95.8644 72.4616C98.6834 69.6002 102.276 67.6509 106.187 66.8603C110.099 66.0697 114.154 66.4733 117.84 68.02C121.525 69.5667 124.676 72.187 126.893 75.5496C129.11 78.9123 130.294 82.8661 130.296 86.9112C130.296 92.3331 128.174 97.5332 124.394 101.368C120.615 105.203 115.489 107.359 110.143 107.362L110.143 107.367Z" fill="white"/>
</svg>
