<svg width="414" height="144" viewBox="0 0 414 144" fill="none" xmlns="http://www.w3.org/2000/svg">
<path opacity="0.05" fill-rule="evenodd" clip-rule="evenodd" d="M262.164 119.323L231.754 119.323L172.628 119.071C152.281 118.636 137.803 120.45 126.209 108.36C105.937 87.6609 81.4503 62.8783 60.5056 41.6442C62.8014 34.7864 62.6971 27.3354 60.2103 20.5455C57.7236 13.7555 53.0062 8.04098 46.8522 4.36371C40.6982 0.686415 33.4831 -0.729159 26.4214 0.355267C19.3598 1.43968 12.8826 4.95787 8.07993 10.3177C3.27733 15.6775 0.442501 22.5518 0.0526012 29.7835C-0.337299 37.0152 1.74147 44.1629 5.93913 50.0236C10.1368 55.8843 16.197 60.1001 23.0999 61.9616C30.0027 63.8231 37.3268 63.2166 43.8393 60.2441C66.027 82.7384 88.7007 106.308 110.57 126.803C120.187 135.331 133.243 144.887 156.622 143.385L262.169 143.385L413.013 143.385L389.236 119.28L262.164 119.323ZM31.0729 49.0728C27.6444 49.0746 24.2922 48.0455 21.4403 46.1155C18.5883 44.1855 16.3646 41.4414 15.0504 38.2301C13.7363 35.0188 13.3907 31.4847 14.0574 28.0746C14.7241 24.6646 16.3731 21.5319 18.796 19.0726C21.2187 16.6133 24.3065 14.938 27.6686 14.2585C31.0308 13.579 34.5164 13.9259 37.6846 15.2552C40.8527 16.5845 43.5612 18.8366 45.4674 21.7266C47.3736 24.6167 48.3918 28.0149 48.3935 31.4914C48.3944 36.1514 46.5704 40.6206 43.3224 43.9166C40.0745 47.2126 35.6684 49.0655 31.0729 49.068L31.0729 49.0728Z" fill="white"/>
</svg>
