<svg width="158" height="85" viewBox="0 0 158 85" fill="none" xmlns="http://www.w3.org/2000/svg">
<path opacity="0.05" fill-rule="evenodd" clip-rule="evenodd" d="M151.705 14.7843L134.106 14.7843L99.8888 14.9309C88.1136 15.1853 79.7345 14.126 73.0264 21.1844C61.2972 33.2683 47.1292 47.7363 35.0107 60.1327C36.3401 64.1363 36.2806 68.4862 34.8423 72.4501C33.404 76.4141 30.6746 79.7502 27.1136 81.897C23.5526 84.0438 19.3773 84.8702 15.2905 84.2371C11.2037 83.6041 7.45481 81.5501 4.67484 78.4211C1.89486 75.292 0.253519 71.2788 0.0270328 67.057C-0.199453 62.8351 1.00273 58.6623 3.43128 55.2408C5.85984 51.8194 9.36651 49.3582 13.3611 48.2715C17.3556 47.1847 21.5942 47.5388 25.3635 49.2741C38.2012 36.142 51.3201 22.382 63.974 10.417C69.5384 5.43856 77.0929 -0.140108 90.6228 0.73666L151.705 0.736665L239 0.736673L225.243 14.8092L151.705 14.7843ZM17.9767 55.7959C15.9926 55.7948 14.0528 56.3957 12.4025 57.5224C10.7522 58.6491 9.46566 60.2511 8.70552 62.1259C7.94537 64.0006 7.7458 66.0638 8.13203 68.0546C8.51824 70.0454 9.47292 71.8743 10.8753 73.31C12.2777 74.7457 14.0648 75.7238 16.0107 76.1205C17.9565 76.5171 19.9736 76.3146 21.8069 75.5386C23.6402 74.7625 25.2074 73.4478 26.3102 71.7606C27.413 70.0734 28.0019 68.0895 28.0024 66.0599C28.0024 63.3394 26.9463 60.7303 25.0663 58.8061C23.1863 56.8819 20.6362 55.8002 17.9767 55.7987L17.9767 55.7959Z" fill="white"/>
</svg>
