<svg width="268" height="116" viewBox="0 0 268 116" fill="none" xmlns="http://www.w3.org/2000/svg">
<path opacity="0.05" fill-rule="evenodd" clip-rule="evenodd" d="M208.197 95.8239L184.044 95.8239L137.086 95.6232C120.926 95.2748 109.426 96.7251 100.22 87.0618C84.1234 70.5184 64.6794 50.7111 48.0482 33.7398C49.8726 28.2587 49.7909 22.3036 47.817 16.8767C45.8431 11.4499 42.0974 6.88259 37.2103 3.94354C32.3233 1.00447 26.5932 -0.126904 20.9845 0.739811C15.3758 1.60653 10.2309 4.41842 6.4157 8.70225C2.60049 12.9861 0.347922 18.4803 0.0371014 24.2602C-0.27375 30.0402 1.37612 35.7529 4.70904 40.437C8.04196 45.1211 12.8545 48.4906 18.3365 49.9784C23.8186 51.4662 29.6356 50.9815 34.8085 48.6057C52.4268 66.5842 70.431 85.4222 87.7969 101.803C95.4335 108.619 105.801 116.256 124.369 115.056L208.197 115.056L328 115.056L309.12 95.7898L208.197 95.8239ZM24.6709 39.6771C21.948 39.6786 19.2858 38.856 17.021 37.3135C14.7562 35.771 12.9905 33.5777 11.9473 31.0111C10.9041 28.4445 10.6302 25.6199 11.1603 22.8944C11.6903 20.169 13.0005 17.6651 14.9251 15.6996C16.8498 13.734 19.3024 12.395 21.9728 11.8519C24.6432 11.3088 27.4115 11.586 29.9275 12.6485C32.4435 13.711 34.5942 15.5109 36.1077 17.8208C37.6212 20.1306 38.4294 22.8466 38.4301 25.6252C38.4301 29.3497 36.9807 32.9217 34.4006 35.5561C31.8205 38.1904 28.3208 39.6713 24.6709 39.6733L24.6709 39.6771Z" fill="white"/>
</svg>
