<svg width="99" height="66" viewBox="0 0 99 66" fill="none" xmlns="http://www.w3.org/2000/svg">
<path opacity="0.05" fill-rule="evenodd" clip-rule="evenodd" d="M121.108 54.8444L107.117 54.8444L79.9153 54.729C70.5544 54.5286 63.8931 55.3627 58.5603 49.8051C51.2631 42.3591 42.7785 33.7635 34.8167 25.6997C30.8431 21.6752 30.1213 15.4622 28.4191 10.0688C28.3525 9.85785 28.2811 9.64812 28.2047 9.43973C27.0613 6.31859 24.8915 3.69182 22.0606 2.00149C19.2297 0.311157 15.9104 -0.339531 12.6615 0.158943C9.41255 0.65741 6.43228 2.27461 4.22225 4.73835C2.01223 7.2021 0.707393 10.362 0.527339 13.6862C0.347286 17.0104 1.30299 20.2959 3.23365 22.9899C5.1643 25.6839 7.95202 27.6217 11.1276 28.4774C16.7922 30.0037 23.4078 30.4661 27.518 34.6521C35.5042 42.7858 43.5457 50.9612 51.3638 58.283C55.7875 62.203 61.7931 66.5955 72.5491 65.9051L121.108 65.9051L177.254 65.9051C182.172 65.9051 184.652 59.974 181.197 56.4738C180.156 55.4187 178.735 54.8251 177.252 54.8256L121.108 54.8444ZM14.7969 22.5517C14.7969 22.5523 14.7965 22.5528 14.7958 22.5528C13.2189 22.5535 11.6772 22.0804 10.3656 21.1935C9.05365 20.3063 8.03085 19.0449 7.42656 17.5688C6.82225 16.0927 6.6636 14.4681 6.97064 12.9007C7.27769 11.3332 8.03663 9.89315 9.1515 8.7627C10.2664 7.63225 11.6871 6.86216 13.234 6.54981C14.7809 6.23747 16.3844 6.39691 17.8419 7.00796C19.2993 7.61901 20.5452 8.65422 21.4219 9.98268C22.2986 11.3111 22.7668 12.8732 22.7672 14.4712C22.7672 16.6133 21.9276 18.6677 20.433 20.1827C18.9387 21.6975 16.9119 22.5492 14.798 22.5507C14.7974 22.5507 14.7969 22.5511 14.7969 22.5517Z" fill="white"/>
</svg>
