<svg width="320" height="242" viewBox="0 0 320 242" fill="none" xmlns="http://www.w3.org/2000/svg">
<path opacity="0.04" d="M-256.559 236.025L272.879 182.921L238.254 118.3C236.708 118.264 235.144 118.04 233.579 117.815C232.206 117.572 230.641 117.347 229.077 117.123C227.493 116.709 226.119 116.465 224.727 116.033C223.143 115.62 221.751 115.187 220.339 114.566C216.733 113.211 213.09 111.478 209.791 109.329C206.51 107.369 203.382 105.013 200.598 102.24C197.833 99.6565 195.221 96.6759 192.991 93.657C190.742 90.4493 188.874 87.2034 187.159 83.5606C184.664 77.898 183.122 72.1397 182.325 66.116C181.719 60.0731 181.876 53.9537 183.025 48.1163C184.174 42.2789 186.296 36.5346 189.22 31.0914C192.162 25.837 195.925 21.0726 200.317 16.8174C200.489 16.6094 200.851 16.3822 201.023 16.1743C201.386 15.9471 201.768 15.9089 201.939 15.7009C202.13 15.6818 202.512 15.6435 202.894 15.6052C203.275 15.5669 203.466 15.5478 203.867 15.6983C204.058 15.6792 204.267 15.8489 204.458 15.8297L204.668 15.9994C205.069 16.15 205.278 16.3197 205.488 16.4894C205.698 16.6591 205.927 17.0176 206.136 17.1873C206.365 17.5459 206.575 17.7156 206.613 18.0932L227.912 65.1676C228.655 66.8097 229.761 68.2247 231.038 69.4317C232.507 70.6196 234.166 71.7884 235.768 72.3906C237.562 72.9737 239.336 73.368 241.263 73.3654C243 73.382 244.889 73.0017 246.55 72.2629C247.466 71.7895 248.191 71.3353 248.917 70.881C249.642 70.4268 250.349 69.7837 251.055 69.1407C251.762 68.4976 252.258 67.6848 252.755 66.872C253.252 66.0593 253.749 65.2465 254.054 64.4528C254.36 63.6592 254.647 62.6767 254.743 61.7134C254.839 60.75 254.936 59.7867 255.051 59.0122C254.956 58.068 254.861 57.1238 254.785 56.3685C254.5 55.4434 254.214 54.5184 253.948 53.7821L233.144 7.80258C231.05 0.383005 236.469 0.602412 242.842 0.726127C245.17 0.874116 247.307 1.04124 249.444 1.20837C251.6 1.56434 253.756 1.92032 255.931 2.46512C258.106 3.00993 260.3 3.74358 262.303 4.49637C265.908 5.85139 269.552 7.58408 272.851 9.73274C276.132 11.6926 279.26 14.0492 282.044 16.8218C284.809 19.4055 287.421 22.3861 289.651 25.405C291.9 28.6127 293.768 31.8586 295.483 35.5014C297.712 40.4278 299.196 45.6196 299.918 50.8879C300.639 56.1563 300.807 61.6709 299.982 66.9035C299.368 72.3059 297.761 77.4262 295.754 82.396C293.728 87.177 290.919 91.8457 287.501 96.1941L329.937 177.198L593.972 150.715L594.54 156.38L333.368 182.576L325.925 183.323L281.412 98.903L280.65 97.072L279.678 95.0713L281.053 93.4075L282.428 91.7437C285.522 88 288.006 83.9361 289.688 79.5711C291.561 75.187 292.824 70.4826 293.514 65.8356C294.205 61.1886 294.113 56.4294 293.448 51.7276C292.803 47.2146 291.375 42.5893 289.394 38.2103L288.879 36.9267C287.641 34.1898 286.04 31.6801 284.458 29.3592C282.437 26.51 280.264 24.0577 277.709 21.6436C275.363 19.3992 272.655 17.382 269.565 15.403C266.685 13.5938 263.633 11.9925 260.238 10.8072C258.425 10.0353 256.441 9.4713 254.667 9.07705C252.683 8.5131 250.909 8.11885 248.962 7.93257C247.016 7.7463 245.07 7.56004 243.124 7.37377C242.551 7.43119 241.96 7.29978 241.387 7.3572L260.953 50.5999C261.467 51.8835 261.982 53.1671 262.305 54.4698C262.628 55.7725 262.78 57.2833 262.913 58.6051C262.854 59.9461 262.815 61.476 262.547 62.6473C262.298 64.0075 262.049 65.3676 261.399 66.5772C260.959 67.9565 260.31 69.1661 259.45 70.206C258.801 71.4156 257.941 72.4555 256.891 73.5145C256.032 74.5544 254.962 75.4246 253.702 76.314C252.442 77.2033 251.354 77.8847 250.056 78.3963L248.758 78.908L248.567 78.9271C246.334 79.7233 244.254 80.1227 241.945 80.1636C239.064 80.2618 236.316 79.7745 233.703 78.7014C231.09 77.6284 228.629 76.1585 226.722 74.4424C224.796 72.5374 223.042 70.4245 222.014 67.8573L220.528 64.573L202.448 24.6146C199.66 27.5646 197.482 30.8348 195.515 34.2748C192.897 38.9243 191.1 44.0638 190.084 49.3156C189.069 54.5674 188.836 59.9314 189.367 65.2189C189.878 70.3176 191.363 75.5094 193.592 80.4357C195.059 83.5312 196.717 86.6074 198.719 89.2677C200.739 92.1169 202.913 94.5693 205.449 96.7945C207.985 99.0197 210.522 101.245 213.592 103.035C216.472 104.844 219.524 106.446 222.92 107.631C224.313 108.063 225.514 108.515 226.907 108.948C228.3 109.38 229.673 109.624 230.856 109.887C232.039 110.15 233.413 110.393 234.977 110.618C236.351 110.861 237.706 110.916 239.061 110.971L241.198 111.138L243.335 111.305L244.306 113.306L245.068 115.137L283.752 187.553L276.119 188.318L275.737 188.357L-255.99 241.69L-256.559 236.025Z" fill="white"/>
</svg>
