<svg width="320" height="305" viewBox="0 0 320 305" fill="none" xmlns="http://www.w3.org/2000/svg">
<path opacity="0.04" d="M513.982 5.24621L23.7323 136.594L66.2609 192.11C67.7215 191.906 69.2288 191.877 70.7362 191.848C72.0669 191.867 73.5742 191.838 75.0816 191.809C76.6358 191.955 77.9665 191.973 79.344 192.166C80.8983 192.312 82.2758 192.505 83.7002 192.873C87.3027 193.595 90.9988 194.666 94.4353 196.182C97.8249 197.523 101.132 199.261 104.179 201.444C107.179 203.451 110.096 205.856 112.66 208.355C115.27 211.03 117.527 213.798 119.701 216.964C122.921 221.912 125.257 227.096 126.934 232.645C128.433 238.241 129.226 244.026 129.041 249.698C128.857 255.37 127.742 261.104 125.827 266.678C123.864 272.077 121.055 277.14 117.574 281.821C117.444 282.044 117.138 282.313 117.008 282.535C116.701 282.805 116.348 282.9 116.218 283.122C116.041 283.169 115.688 283.264 115.335 283.359C114.981 283.453 114.805 283.501 114.404 283.42C114.228 283.468 114.004 283.34 113.827 283.388L113.604 283.26C113.203 283.18 112.98 283.052 112.756 282.925C112.533 282.797 112.262 282.495 112.039 282.367C111.768 282.065 111.545 281.937 111.451 281.588L84.164 240.543C83.2121 239.111 81.9537 237.949 80.5654 237.008C79.0005 236.116 77.2588 235.27 75.6577 234.95C73.8799 234.676 72.149 234.578 70.335 234.876C68.6978 235.128 66.9777 235.776 65.5279 236.727C64.7381 237.313 64.1249 237.852 63.5118 238.391C62.8987 238.93 62.3326 239.644 61.7663 240.358C61.2001 241.072 60.8574 241.914 60.5147 242.755C60.1721 243.597 59.8294 244.438 59.6634 245.232C59.4975 246.027 59.3783 246.996 59.4359 247.917C59.4935 248.839 59.5512 249.761 59.5619 250.508C59.7962 251.382 60.0305 252.256 60.218 252.956C60.629 253.783 61.0399 254.61 61.4041 255.262L88.0566 295.353C91.168 302.016 86.0328 302.642 80.014 303.505C77.7999 303.723 75.7624 303.894 73.7249 304.065C71.6405 304.061 69.5562 304.058 67.425 303.879C65.2938 303.7 63.1156 303.347 61.1143 302.946C57.5118 302.224 53.8156 301.153 50.3791 299.637C46.9895 298.296 43.6828 296.558 40.6359 294.375C37.6358 292.368 34.7187 289.963 32.155 287.464C29.5444 284.789 27.2873 282.021 25.1131 278.855C22.2575 274.559 20.0618 269.899 18.573 265.05C17.0841 260.201 16.0785 255.035 16.0502 249.983C15.7983 244.802 16.5238 239.735 17.6494 234.748C18.8218 229.935 20.748 225.108 23.2981 220.489L-29.1027 150.749L-273.595 216.253L-275 211.007L-33.1592 146.213L-26.2676 144.367L28.6139 217.003L29.6126 218.61L30.8349 220.344L29.7962 222.122L28.7574 223.9C26.4202 227.899 24.7068 232.107 23.794 236.475C22.7045 240.89 22.2389 245.513 22.3033 249.994C22.3677 254.475 23.1858 258.941 24.5341 263.266C25.8355 267.415 27.8906 271.55 30.4289 275.369L31.1103 276.498C32.6967 278.884 34.5898 281.001 36.4359 282.943C38.7761 285.315 41.1992 287.29 43.9757 289.17C46.5287 290.922 49.3882 292.405 52.6012 293.794C55.5905 295.054 58.7097 296.093 62.0886 296.687C63.9133 297.135 65.8678 297.361 67.5987 297.46C69.5532 297.686 71.2841 297.785 73.1449 297.661C75.0057 297.537 76.8665 297.413 78.7273 297.29C79.2574 297.148 79.8344 297.181 80.3645 297.039L55.2985 259.334C54.6171 258.205 53.9356 257.075 53.4308 255.899C52.9261 254.722 52.5513 253.323 52.2233 252.099C52.0719 250.827 51.8737 249.381 51.9459 248.237C51.9713 246.918 51.9967 245.6 52.4224 244.361C52.6245 242.995 53.0502 241.756 53.6994 240.645C54.125 239.407 54.7742 238.296 55.6001 237.137C56.2493 236.026 57.1222 235.043 58.1717 234.012C59.2212 232.981 60.1408 232.172 61.284 231.491L62.4272 230.81L62.604 230.763C64.5838 229.67 66.4807 228.974 68.648 228.581C71.3455 228.046 74.0069 228.082 76.6321 228.691C79.2573 229.3 81.7995 230.305 83.8584 231.628C85.9643 233.126 87.9403 234.845 89.3032 237.104L91.2069 239.968L114.369 274.808C116.54 271.603 118.088 268.189 119.412 264.648C121.161 259.869 122.063 254.754 122.211 249.654C122.36 244.554 121.755 239.468 120.442 234.571C119.177 229.85 116.982 225.19 114.126 220.895C112.269 218.206 110.235 215.565 107.942 213.368C105.602 210.996 103.179 209.021 100.449 207.316C97.7196 205.611 94.9899 203.906 91.8238 202.692C88.8344 201.431 85.7152 200.393 82.3364 199.799C80.9588 199.605 79.758 199.365 78.3805 199.172C77.003 198.978 75.6723 198.96 74.5183 198.894C73.3644 198.829 72.0337 198.81 70.5263 198.839C69.1957 198.821 67.9119 198.978 66.628 199.134L64.5905 199.305L62.5531 199.476L61.3308 197.742L60.3321 196.135L12.7843 133.904L19.8525 132.01L20.2059 131.916L512.576 0.000100426L513.982 5.24621Z" fill="white"/>
</svg>
