<svg width="320" height="939" viewBox="0 0 320 939" fill="none" xmlns="http://www.w3.org/2000/svg">
<g opacity="0.03">
<path d="M353.906 714.045C352.874 714.391 351.958 714.622 350.926 714.852C349.895 715.083 348.978 715.083 347.947 714.968C346.915 714.852 345.999 714.506 344.853 714.045C343.821 713.584 342.79 712.777 341.758 711.624C341.3 711.163 340.727 710.587 339.925 709.78C339.123 708.973 338.321 708.166 337.289 707.358C336.372 706.551 335.341 705.975 334.31 705.514C333.278 705.053 332.247 704.937 331.215 705.283C330.184 705.629 329.382 706.321 329.038 707.358C328.694 708.396 328.694 709.549 329.038 710.587C329.267 711.394 329.726 712.085 330.184 712.662C330.757 713.123 331.215 713.584 331.903 713.93C332.476 714.276 333.164 714.506 333.737 714.622C334.31 714.737 334.883 714.968 335.226 715.083L331.788 725.574C328.58 725.228 325.715 723.96 323.308 721.885C320.902 719.694 319.183 716.928 318.037 713.584C317.464 711.739 317.12 709.895 317.12 707.82C317.12 705.86 317.349 703.9 318.037 702.055C318.724 700.211 319.87 698.481 321.36 696.982C322.964 695.484 325.027 694.331 327.663 693.524C329.955 692.832 332.132 692.601 334.195 692.832C336.258 693.063 338.435 694.1 340.498 695.714C341.529 696.521 342.446 697.444 343.363 698.366C344.165 699.288 345.082 700.095 345.884 700.902C346.686 701.709 347.488 702.286 348.176 702.632C348.978 703.093 349.666 703.093 350.468 702.862L353.906 714.045ZM372.127 708.05L360.553 711.739L357.115 700.672L368.689 696.982L372.127 708.05Z" fill="white"/>
<path d="M284.802 57.238L266.352 52.5111L270.821 34.987L289.271 39.7139L284.802 57.238ZM255.58 50.09C253.975 49.6288 252.485 49.1677 250.996 48.7065C249.506 48.1301 248.131 47.4383 246.87 46.4007C245.61 45.4784 244.578 44.2102 243.547 42.7114C242.63 41.2127 241.828 39.2527 241.255 36.9469C241.026 36.0246 240.682 34.6411 240.338 32.9118C239.994 31.1824 239.421 29.4531 238.848 27.6084C238.161 25.7638 237.359 24.1497 236.327 22.651C235.296 21.1522 234.035 20.2299 232.431 19.884C230.712 19.4228 229.222 19.7687 227.847 20.9216C226.472 22.0745 225.555 23.458 225.097 25.3026C224.753 26.6861 224.753 27.9543 224.982 28.9919C225.211 30.1448 225.67 31.0671 226.243 31.9894C226.816 32.9118 227.389 33.7188 228.076 34.4105C228.764 35.1023 229.222 35.794 229.68 36.3705L216.502 47.5536C212.376 44.4408 209.626 40.4056 208.136 35.5634C206.646 30.7213 206.646 25.5332 208.021 20.1146C208.709 17.2323 209.855 14.4654 211.459 11.6984C213.064 8.93143 215.012 6.62563 217.418 4.78099C219.825 2.82106 222.69 1.55287 226.013 0.86113C229.337 0.16939 233.004 0.28468 237.244 1.43758C240.796 2.3599 244.005 3.85867 246.526 5.93389C249.162 8.00912 251.11 11.0067 252.6 15.0418C253.288 17.0017 253.861 18.9617 254.204 20.9216C254.548 22.8815 255.007 24.7262 255.465 26.3402C255.923 28.0696 256.496 29.4531 257.184 30.606C257.872 31.7589 258.788 32.5659 259.934 32.7965L255.58 50.09Z" fill="white"/>
<path d="M305.658 594.259L301.533 605.211L291.219 601.291L295.344 590.339L305.658 594.259ZM299.355 611.667C299.012 612.59 298.668 613.512 298.209 614.434C297.751 615.357 297.178 616.048 296.605 616.74C295.917 617.432 295.115 618.008 294.084 618.469C293.052 618.931 291.906 619.276 290.417 619.507C289.844 619.622 289.041 619.622 287.896 619.738C286.864 619.853 285.718 619.968 284.572 620.314C283.426 620.545 282.395 621.006 281.478 621.467C280.561 622.043 279.874 622.735 279.53 623.658C279.186 624.695 279.186 625.617 279.759 626.54C280.332 627.462 281.134 628.154 282.166 628.5C282.968 628.846 283.655 628.961 284.343 628.846C285.031 628.73 285.718 628.615 286.291 628.269C286.864 628.039 287.437 627.693 287.896 627.347C288.354 627.001 288.812 626.655 289.156 626.54L295.001 635.302C292.823 637.608 290.187 638.991 287.208 639.568C284.114 640.144 281.02 639.798 277.811 638.645C276.092 637.953 274.488 637.146 272.998 635.994C271.508 634.841 270.133 633.457 269.216 631.843C268.185 630.229 267.612 628.384 267.382 626.309C267.153 624.234 267.497 621.928 268.528 619.507C269.331 617.317 270.477 615.587 271.852 614.088C273.342 612.59 275.29 611.552 277.696 610.976C278.957 610.63 280.103 610.514 281.363 610.399C282.624 610.284 283.655 610.169 284.687 610.053C285.718 609.938 286.635 609.707 287.437 609.361C288.239 609.016 288.698 608.554 288.927 607.863L299.355 611.667Z" fill="white"/>
<path d="M243.777 124.798L262.571 128.026L259.477 145.896L240.683 142.668L243.777 124.798ZM273.458 129.64C275.062 129.87 276.666 130.216 278.156 130.677C279.646 131.139 281.136 131.715 282.396 132.637C283.657 133.444 284.918 134.597 285.949 136.096C286.98 137.595 287.897 139.439 288.585 141.63C288.928 142.552 289.272 143.82 289.731 145.55C290.189 147.279 290.877 149.009 291.679 150.738C292.481 152.467 293.398 154.081 294.544 155.465C295.69 156.848 297.065 157.655 298.669 158.001C300.388 158.347 301.878 157.886 303.253 156.618C304.514 155.465 305.316 153.851 305.66 152.006C305.889 150.623 305.889 149.354 305.431 148.317C305.087 147.279 304.514 146.242 303.941 145.435C303.253 144.627 302.68 143.82 301.878 143.129C301.19 142.437 300.617 141.861 300.159 141.284L312.421 129.063C316.776 131.83 319.755 135.635 321.704 140.362C323.537 145.089 323.995 150.277 323.079 155.811C322.62 158.693 321.589 161.575 320.328 164.457C318.953 167.34 317.12 169.761 314.942 171.836C312.65 173.911 309.9 175.41 306.691 176.448C303.482 177.37 299.701 177.485 295.461 176.793C291.793 176.102 288.585 174.949 285.834 172.989C283.084 171.144 280.792 168.262 279.188 164.457C278.385 162.613 277.698 160.653 277.125 158.808C276.552 156.848 275.979 155.119 275.406 153.505C274.833 151.891 274.145 150.507 273.458 149.354C272.656 148.201 271.739 147.625 270.478 147.394L273.458 129.64Z" fill="white"/>
<path d="M276.781 671.503L285.834 671.157L286.178 679.804L277.124 680.15L276.781 671.503ZM291.105 670.812C291.908 670.812 292.595 670.812 293.397 670.812C294.2 670.812 294.887 671.042 295.575 671.273C296.262 671.503 296.95 671.964 297.638 672.541C298.325 673.117 298.898 673.924 299.471 674.847C299.7 675.193 300.044 675.769 300.388 676.576C300.732 677.268 301.305 678.075 301.763 678.767C302.336 679.458 302.909 680.15 303.597 680.611C304.284 681.188 304.972 681.418 305.774 681.303C306.576 681.303 307.264 680.957 307.722 680.265C308.181 679.574 308.41 678.767 308.41 677.96C308.41 677.268 308.181 676.691 307.951 676.23C307.722 675.769 307.378 675.308 306.92 674.962C306.576 674.616 306.118 674.386 305.774 674.155C305.43 673.924 305.086 673.694 304.743 673.463L309.212 666.546C311.504 667.468 313.337 668.852 314.598 670.927C315.973 673.002 316.661 675.308 316.775 677.96C316.775 679.343 316.661 680.842 316.317 682.225C315.973 683.724 315.4 684.992 314.483 686.26C313.681 687.413 312.535 688.451 311.16 689.258C309.785 690.065 308.066 690.411 306.003 690.526C304.284 690.641 302.565 690.296 301.19 689.719C299.7 689.143 298.44 687.99 297.179 686.376C296.606 685.569 296.033 684.762 295.689 683.955C295.231 683.148 294.773 682.341 294.429 681.649C293.97 680.957 293.512 680.381 293.054 679.92C292.595 679.458 292.022 679.228 291.449 679.343L291.105 670.812Z" fill="white"/>
<path d="M327.204 551.832L326.745 558.98L319.984 558.519L320.442 551.371L327.204 551.832ZM326.516 563.131C326.516 563.707 326.401 564.399 326.287 564.975C326.172 565.552 326.058 566.128 325.714 566.705C325.485 567.281 325.026 567.742 324.568 568.203C324.109 568.665 323.422 569.126 322.62 569.472C322.276 569.587 321.818 569.818 321.245 570.048C320.672 570.279 319.984 570.625 319.411 570.97C318.838 571.316 318.265 571.777 317.807 572.239C317.348 572.7 317.119 573.276 317.004 573.853C317.004 574.544 317.234 575.121 317.692 575.467C318.15 575.928 318.838 576.158 319.526 576.158C320.099 576.158 320.557 576.158 320.901 575.928C321.245 575.697 321.588 575.467 321.932 575.236C322.276 575.006 322.505 574.66 322.734 574.429C322.964 574.083 323.193 573.853 323.307 573.737L328.35 577.888C327.433 579.617 326.172 580.885 324.453 581.808C322.734 582.73 320.901 583.076 318.723 582.961C317.577 582.845 316.546 582.615 315.4 582.269C314.254 581.923 313.337 581.231 312.42 580.539C311.504 579.732 310.931 578.81 310.358 577.657C309.899 576.504 309.67 575.121 309.785 573.391C309.899 572.008 310.243 570.74 310.816 569.587C311.389 568.434 312.42 567.512 313.796 566.705C314.483 566.359 315.171 566.013 315.858 565.667C316.546 565.436 317.234 565.091 317.807 564.86C318.38 564.629 318.838 564.284 319.296 563.938C319.64 563.592 319.869 563.246 319.869 562.785L326.516 563.131Z" fill="white"/>
<path d="M264.174 183.827L245.38 186.594L242.744 168.724L261.538 165.957L264.174 183.827ZM234.493 188.554C232.889 188.784 231.284 188.899 229.68 189.015C228.075 189.13 226.586 188.899 224.981 188.554C223.492 188.092 222.002 187.401 220.512 186.363C219.022 185.325 217.647 183.827 216.272 181.982C215.699 181.175 214.897 180.137 213.865 178.639C212.834 177.14 211.688 175.756 210.427 174.373C209.167 172.989 207.677 171.721 206.187 170.799C204.697 169.877 203.093 169.531 201.489 169.761C199.77 169.992 198.394 170.914 197.592 172.413C196.79 173.912 196.446 175.641 196.79 177.486C197.019 178.869 197.478 180.022 198.165 180.944C198.853 181.867 199.655 182.674 200.457 183.25C201.374 183.827 202.176 184.403 203.093 184.749C204.01 185.095 204.697 185.556 205.27 185.902L197.478 201.351C192.55 200.083 188.424 197.431 185.216 193.511C182.007 189.591 179.944 184.864 179.142 179.33C178.684 176.448 178.684 173.335 179.142 170.222C179.486 167.11 180.517 164.227 182.007 161.46C183.497 158.809 185.56 156.388 188.424 154.543C191.175 152.583 194.727 151.315 198.967 150.623C202.635 150.047 206.073 150.277 209.281 151.2C212.49 152.122 215.47 154.082 218.335 157.195C219.71 158.693 220.97 160.307 222.116 161.922C223.262 163.536 224.294 165.034 225.325 166.418C226.356 167.801 227.502 168.839 228.534 169.761C229.565 170.568 230.711 170.914 231.972 170.684L234.493 188.554Z" fill="white"/>
<path d="M180.402 223.947L170.776 239.165L156.451 229.942L166.078 214.724L180.402 223.947ZM165.39 248.158C164.588 249.426 163.671 250.694 162.754 251.847C161.837 253 160.806 254.038 159.546 254.845C158.285 255.652 156.91 256.344 155.191 256.689C153.586 257.151 151.638 257.266 149.346 257.035C148.43 256.92 147.169 256.805 145.45 256.689C143.846 256.459 142.012 256.459 140.293 256.459C138.459 256.574 136.74 256.805 135.136 257.266C133.532 257.727 132.271 258.649 131.469 259.918C130.552 261.301 130.438 262.8 131.011 264.414C131.584 265.913 132.615 267.181 134.105 268.103C135.251 268.795 136.282 269.256 137.428 269.256C138.459 269.371 139.491 269.256 140.522 269.026C141.554 268.795 142.356 268.449 143.158 268.103C143.96 267.757 144.648 267.411 145.335 267.181L151.409 282.399C147.398 285.166 143.043 286.434 138.23 286.319C133.417 286.204 128.833 284.705 124.364 281.938C122.072 280.439 119.895 278.595 117.946 276.404C115.998 274.214 114.508 271.677 113.477 269.026C112.446 266.259 112.102 263.376 112.446 260.148C112.789 256.92 114.05 253.577 116.227 250.118C118.061 247.12 120.353 244.815 122.989 242.97C125.624 241.241 128.948 240.318 132.844 240.203C134.792 240.088 136.74 240.203 138.574 240.434C140.408 240.664 142.127 240.779 143.846 240.895C145.45 241.01 146.94 240.895 148.2 240.664C149.461 240.434 150.378 239.742 150.951 238.82L165.39 248.158Z" fill="white"/>
<path d="M343.018 108.08L330.641 106.927L331.787 95.1679L344.164 96.3208L343.018 108.08ZM323.422 106.466C322.39 106.351 321.359 106.236 320.328 106.005C319.296 105.775 318.379 105.429 317.463 104.968C316.546 104.506 315.744 103.815 314.942 102.892C314.139 101.97 313.452 100.817 312.879 99.4336C312.65 98.8572 312.306 98.0501 311.847 96.8972C311.389 95.8596 310.931 94.7067 310.358 93.5538C309.785 92.4009 309.097 91.4786 308.18 90.6716C307.378 89.8645 306.461 89.4034 305.43 89.2881C304.284 89.1728 303.253 89.5187 302.565 90.441C301.763 91.248 301.304 92.2856 301.19 93.5538C301.075 94.4761 301.19 95.2832 301.534 95.9749C301.877 96.6666 302.221 97.2431 302.68 97.8195C303.138 98.396 303.596 98.8572 304.169 99.203C304.628 99.5489 305.086 99.8948 305.43 100.241L298.096 108.772C295.116 107.158 292.939 104.852 291.449 101.855C289.959 98.8571 289.501 95.5137 289.845 91.8245C290.074 89.8645 290.532 88.0199 291.22 86.06C291.907 84.1 293.053 82.486 294.429 80.9872C295.804 79.4884 297.523 78.3355 299.585 77.5285C301.648 76.7215 304.055 76.4909 306.92 76.7215C309.326 76.952 311.504 77.6438 313.452 78.6814C315.4 79.719 317.004 81.5636 318.265 83.9847C318.952 85.1376 319.411 86.4058 319.869 87.5587C320.328 88.8269 320.786 89.8645 321.244 90.9021C321.703 91.9397 322.161 92.8621 322.734 93.5538C323.307 94.2456 323.995 94.5914 324.797 94.7067L323.422 106.466Z" fill="white"/>
<path d="M321.131 631.497L333.278 635.532L329.496 647.061L317.349 643.026L321.131 631.497ZM340.383 637.608C341.414 637.954 342.446 638.299 343.363 638.761C344.394 639.222 345.196 639.798 345.998 640.49C346.801 641.182 347.488 642.104 348.061 643.142C348.634 644.179 349.093 645.563 349.322 647.061C349.436 647.753 349.551 648.676 349.78 649.828C349.895 650.981 350.239 652.249 350.582 653.518C350.926 654.786 351.384 655.939 352.072 656.976C352.645 658.014 353.562 658.706 354.593 659.052C355.739 659.398 356.771 659.282 357.687 658.59C358.604 657.899 359.292 656.976 359.75 655.823C360.094 654.901 360.094 654.094 359.979 653.287C359.865 652.48 359.636 651.788 359.292 651.212C358.948 650.52 358.604 650.059 358.146 649.483C357.687 649.021 357.458 648.56 357.114 648.099L366.397 641.182C369.033 643.488 370.637 646.254 371.439 649.598C372.241 652.941 372.012 656.4 370.866 659.974C370.293 661.819 369.376 663.663 368.116 665.393C366.97 667.122 365.48 668.621 363.761 669.774C362.042 670.927 360.094 671.734 357.802 672.079C355.51 672.425 353.103 672.079 350.239 671.157C347.832 670.35 345.884 669.197 344.165 667.698C342.446 666.2 341.3 664.009 340.498 661.357C340.154 659.974 339.81 658.706 339.695 657.322C339.581 656.054 339.352 654.786 339.122 653.633C338.893 652.48 338.55 651.442 338.206 650.635C337.862 649.828 337.174 649.252 336.487 649.021L340.383 637.608Z" fill="white"/>
<path d="M353.104 631.267L344.967 626.771L349.207 619.046L357.344 623.543L353.104 631.267ZM340.154 624.234C339.466 623.888 338.779 623.427 338.206 622.966C337.518 622.505 337.06 622.044 336.602 621.352C336.143 620.776 335.799 619.969 335.456 619.161C335.226 618.354 335.112 617.317 335.112 616.164C335.112 615.703 335.112 615.011 335.226 614.204C335.226 613.282 335.226 612.475 335.112 611.552C334.997 610.63 334.883 609.708 334.539 608.901C334.195 608.094 333.737 607.517 333.049 607.056C332.247 606.595 331.559 606.595 330.757 606.941C329.955 607.287 329.382 607.863 328.923 608.67C328.58 609.247 328.465 609.823 328.465 610.399C328.465 610.976 328.58 611.437 328.694 612.013C328.809 612.475 329.038 612.936 329.267 613.397C329.496 613.858 329.611 614.204 329.84 614.55L322.277 618.239C320.787 616.279 319.87 613.973 319.87 611.552C319.756 609.016 320.443 606.595 321.704 604.289C322.391 603.021 323.308 601.868 324.339 600.715C325.371 599.677 326.631 598.755 328.007 598.179C329.382 597.602 330.872 597.256 332.476 597.372C334.08 597.487 335.914 597.948 337.747 598.986C339.352 599.908 340.612 600.946 341.644 602.329C342.675 603.597 343.248 605.327 343.363 607.402C343.477 608.44 343.477 609.362 343.363 610.399C343.248 611.322 343.248 612.244 343.248 613.166C343.248 613.973 343.363 614.78 343.477 615.357C343.592 616.049 344.05 616.51 344.509 616.74L340.154 624.234Z" fill="white"/>
<path d="M179.601 656.516L195.874 666.431L186.591 681.995L170.318 672.08L179.601 656.516ZM205.5 671.849C206.875 672.656 208.25 673.578 209.511 674.501C210.771 675.423 211.917 676.576 212.834 677.844C213.751 679.112 214.439 680.611 214.897 682.341C215.355 684.07 215.585 686.145 215.355 688.451C215.355 689.373 215.241 690.757 215.012 692.601C214.897 694.331 214.782 696.175 214.897 698.135C215.012 700.095 215.355 701.825 215.928 703.554C216.501 705.283 217.418 706.551 218.908 707.358C220.398 708.281 222.002 708.396 223.606 707.704C225.211 707.013 226.471 705.86 227.503 704.361C228.19 703.208 228.649 701.94 228.649 700.787C228.649 699.634 228.534 698.596 228.305 697.559C228.076 696.521 227.617 695.599 227.274 694.677C226.815 693.87 226.471 693.062 226.242 692.371L242.057 685.453C245.036 689.604 246.526 694.215 246.641 699.403C246.641 704.476 245.265 709.434 242.4 714.276C240.911 716.812 238.963 719.118 236.671 721.309C234.379 723.499 231.857 725.113 228.993 726.266C226.128 727.419 223.033 727.88 219.71 727.534C216.387 727.304 212.834 726.035 209.052 723.73C205.844 721.77 203.323 719.464 201.374 716.697C199.426 713.93 198.395 710.471 198.166 706.321C198.051 704.246 198.051 702.286 198.28 700.21C198.509 698.251 198.624 696.406 198.624 694.677C198.624 692.947 198.509 691.448 198.28 690.065C197.936 688.797 197.249 687.759 196.217 687.183L205.5 671.849Z" fill="white"/>
<path d="M142.929 795.325C141.898 795.209 140.866 795.094 139.835 794.979C138.804 794.863 137.887 794.518 136.97 794.056C136.053 793.595 135.251 792.903 134.449 792.096C133.647 791.289 132.959 790.137 132.386 788.753C132.157 788.177 131.813 787.37 131.355 786.332C130.896 785.294 130.438 784.257 129.75 783.219C129.177 782.181 128.375 781.259 127.573 780.452C126.771 779.645 125.854 779.184 124.823 779.184C123.677 779.069 122.76 779.53 122.072 780.337C121.385 781.144 120.926 782.182 120.926 783.334C120.812 784.257 121.041 785.064 121.27 785.64C121.614 786.332 121.958 786.908 122.416 787.37C122.874 787.831 123.333 788.292 123.906 788.638C124.364 788.984 124.823 789.33 125.166 789.675L118.176 798.207C115.311 796.708 113.019 794.518 111.529 791.635C110.039 788.753 109.466 785.525 109.696 781.951C109.81 780.106 110.269 778.146 110.842 776.302C111.529 774.457 112.446 772.728 113.821 771.229C115.082 769.73 116.686 768.577 118.749 767.77C120.697 766.963 123.104 766.617 125.854 766.733C128.261 766.848 130.323 767.424 132.271 768.462C134.105 769.5 135.824 771.114 137.085 773.419C137.772 774.572 138.345 775.725 138.804 776.878C139.262 778.031 139.72 779.184 140.179 780.106C140.637 781.144 141.21 781.951 141.668 782.643C142.241 783.334 142.929 783.68 143.731 783.68L142.929 795.325ZM162.067 796.362L149.92 795.555L150.722 784.026L162.869 784.833L162.067 796.362Z" fill="white"/>
<path d="M344.279 862.424C343.247 862.308 342.216 862.193 341.184 861.963C340.153 861.732 339.236 861.386 338.434 860.925C337.517 860.464 336.715 859.772 336.028 858.85C335.225 857.927 334.652 856.774 334.079 855.391C333.85 854.814 333.506 854.007 333.163 852.97C332.819 851.932 332.246 850.779 331.673 849.742C331.1 848.704 330.412 847.666 329.61 846.859C328.808 846.052 327.891 845.591 326.86 845.476C325.714 845.361 324.797 845.706 323.995 846.513C323.193 847.321 322.849 848.358 322.62 849.511C322.505 850.433 322.62 851.24 322.849 851.817C323.078 852.509 323.536 853.085 323.88 853.662C324.339 854.238 324.797 854.584 325.255 855.045C325.714 855.391 326.172 855.737 326.401 856.083L319.067 864.384C316.202 862.77 314.139 860.464 312.764 857.581C311.389 854.584 310.931 851.356 311.274 847.782C311.504 845.937 311.962 843.977 312.65 842.132C313.452 840.288 314.483 838.674 315.744 837.175C317.119 835.791 318.723 834.638 320.786 833.947C322.849 833.14 325.141 832.909 327.891 833.255C330.298 833.486 332.36 834.177 334.194 835.215C336.028 836.253 337.632 837.982 338.778 840.403C339.351 841.556 339.924 842.709 340.382 843.977C340.841 845.13 341.184 846.283 341.643 847.321C342.101 848.358 342.56 849.165 343.133 849.857C343.706 850.549 344.279 850.895 345.081 851.01L344.279 862.424ZM363.302 864.268L351.269 863L352.53 851.471L364.562 852.739L363.302 864.268Z" fill="white"/>
<path d="M230.483 831.41L245.839 823.801L253.059 838.443L237.703 846.052L230.483 831.41ZM254.549 819.074C255.809 818.382 257.184 817.806 258.56 817.345C259.935 816.884 261.31 816.538 262.685 816.423C264.06 816.307 265.55 816.538 267.154 816.999C268.759 817.46 270.363 818.382 272.082 819.651C272.77 820.112 273.801 820.919 275.062 821.841C276.322 822.763 277.697 823.686 279.187 824.608C280.677 825.415 282.167 826.107 283.771 826.453C285.376 826.799 286.751 826.683 288.011 826.107C289.501 825.415 290.303 824.262 290.647 822.763C290.876 821.265 290.762 819.651 289.959 818.152C289.386 816.999 288.699 816.192 287.897 815.615C287.094 815.039 286.178 814.578 285.261 814.347C284.344 814.117 283.427 813.886 282.625 813.771C281.823 813.655 281.021 813.54 280.448 813.425L282.854 798.091C287.438 797.861 291.678 798.898 295.575 801.435C299.471 803.856 302.451 807.43 304.628 811.926C305.774 814.347 306.691 816.884 307.149 819.651C307.722 822.418 307.608 825.185 307.149 827.952C306.576 830.719 305.43 833.255 303.597 835.676C301.763 838.097 299.127 840.172 295.575 841.902C292.595 843.4 289.616 844.207 286.636 844.323C283.657 844.438 280.448 843.516 277.239 841.671C275.635 840.749 274.145 839.711 272.77 838.674C271.395 837.521 270.019 836.598 268.759 835.676C267.498 834.754 266.238 834.177 265.092 833.716C263.946 833.255 262.914 833.37 261.883 833.831L254.549 819.074Z" fill="white"/>
<path d="M137.658 873.376L152.097 882.599L143.502 896.319L129.063 887.096L137.658 873.376ZM160.692 887.672C161.953 888.479 163.099 889.286 164.244 890.208C165.39 891.131 166.307 892.168 167.109 893.321C167.912 894.474 168.485 895.858 168.943 897.472C169.401 899.086 169.516 900.93 169.287 903.006C169.287 903.928 169.172 905.081 168.943 906.695C168.714 908.309 168.714 909.923 168.828 911.652C168.943 913.382 169.172 914.996 169.631 916.61C170.089 918.109 171.006 919.262 172.152 920.069C173.527 920.876 174.902 921.106 176.392 920.53C177.882 919.953 179.028 919.031 179.944 917.532C180.632 916.495 180.976 915.457 181.09 914.419C181.205 913.382 181.09 912.459 180.861 911.422C180.632 910.499 180.288 909.577 179.944 908.885C179.601 908.078 179.257 907.387 179.142 906.81L193.467 900.93C196.103 904.735 197.363 909.001 197.249 913.497C197.134 918.109 195.759 922.49 193.123 926.755C191.748 929.061 189.914 931.021 187.852 932.981C185.789 934.826 183.382 936.325 180.861 937.247C178.225 938.169 175.475 938.515 172.496 938.284C169.516 937.939 166.307 936.786 162.984 934.71C160.119 932.866 157.942 930.791 156.223 928.254C154.504 925.718 153.701 922.605 153.587 918.8C153.472 916.956 153.587 915.111 153.816 913.382C154.045 911.652 154.16 909.923 154.274 908.424C154.389 906.81 154.274 905.427 154.045 904.274C153.816 903.121 153.243 902.199 152.326 901.622L160.692 887.672Z" fill="white"/>
<path d="M122.646 712.316L115.197 725.805L102.476 718.772L109.925 705.283L122.646 712.316ZM111.186 733.76C110.613 734.913 109.925 736.066 109.123 737.103C108.435 738.141 107.519 739.063 106.487 739.87C105.456 740.677 104.31 741.254 102.935 741.715C101.559 742.176 99.9551 742.407 98.0069 742.291C97.2047 742.291 96.1734 742.291 94.6836 742.176C93.3084 742.061 91.8187 742.176 90.2143 742.291C88.7245 742.407 87.2347 742.752 85.8595 743.329C84.4844 743.79 83.5676 744.712 82.88 745.865C82.1924 747.134 82.0778 748.402 82.7654 749.67C83.3384 750.938 84.2552 751.976 85.6304 752.667C86.6617 753.244 87.5785 753.474 88.4953 753.474C89.4121 753.474 90.3289 753.359 91.1311 753.129C91.9332 752.898 92.7354 752.552 93.423 752.206C94.1106 751.86 94.6836 751.515 95.2566 751.284L101.33 763.851C98.1215 766.387 94.4544 767.77 90.3289 768.001C86.2034 768.232 82.1924 767.194 78.2961 765.003C76.2333 763.851 74.2852 762.352 72.4516 760.622C70.618 758.893 69.2428 756.818 68.2115 754.512C67.1801 752.206 66.7217 749.785 66.8363 747.018C66.9509 744.251 67.8677 741.369 69.472 738.256C70.9618 735.604 72.6808 733.529 74.8582 731.8C77.0355 730.186 79.7858 729.148 83.1092 728.918C84.7136 728.802 86.4325 728.687 87.9223 728.802C89.5267 728.918 91.0165 728.918 92.3916 728.918C93.7668 728.918 95.0274 728.802 96.0588 728.456C97.0902 728.226 97.8924 727.649 98.3507 726.727L111.186 733.76Z" fill="white"/>
<path d="M270.822 658.129L259.477 659.167L258.446 648.445L269.791 647.407L270.822 658.129ZM252.945 659.974C252.028 660.089 250.997 660.089 250.08 660.089C249.163 660.089 248.246 659.974 247.33 659.628C246.413 659.282 245.611 658.821 244.694 658.245C243.892 657.553 243.09 656.631 242.287 655.478C241.944 655.017 241.485 654.325 241.027 653.403C240.454 652.48 239.881 651.558 239.079 650.751C238.391 649.829 237.589 649.137 236.672 648.445C235.755 647.869 234.838 647.523 233.922 647.638C232.89 647.753 232.088 648.214 231.515 649.137C230.942 650.059 230.713 650.981 230.828 652.134C230.942 652.941 231.171 653.633 231.515 654.21C231.859 654.786 232.317 655.247 232.89 655.708C233.349 656.054 233.922 656.4 234.38 656.631C234.838 656.861 235.297 657.092 235.641 657.438L230.484 666.43C227.619 665.508 225.212 663.779 223.379 661.358C221.545 658.936 220.514 656.054 220.17 652.711C220.055 650.981 220.055 649.137 220.399 647.292C220.743 645.448 221.43 643.718 222.347 642.219C223.264 640.605 224.639 639.337 226.358 638.3C228.077 637.262 230.255 636.57 232.776 636.34C234.953 636.109 237.016 636.34 238.964 637.031C240.912 637.723 242.631 638.991 244.121 640.951C244.923 641.874 245.611 642.911 246.184 643.949C246.757 644.986 247.33 645.909 248.017 646.716C248.59 647.523 249.163 648.214 249.851 648.791C250.424 649.367 251.111 649.598 251.914 649.483L252.945 659.974Z" fill="white"/>
<path d="M216.502 757.164C218.106 757.164 219.71 757.164 221.315 757.279C222.919 757.394 224.409 757.74 225.899 758.317C227.388 758.893 228.764 759.815 230.024 761.084C231.399 762.352 232.545 763.966 233.691 766.041C234.15 766.848 234.837 768.116 235.639 769.73C236.442 771.344 237.358 772.843 238.504 774.457C239.65 776.071 240.911 777.339 242.286 778.492C243.661 779.645 245.151 780.222 246.755 780.222C248.589 780.222 249.964 779.415 250.996 778.031C252.027 776.648 252.485 774.918 252.485 773.074C252.485 771.69 252.142 770.422 251.569 769.5C250.996 768.462 250.308 767.655 249.506 766.963C248.704 766.272 247.901 765.58 247.099 765.119C246.297 764.658 245.609 764.196 245.036 763.735L254.777 749.439C259.476 751.399 263.258 754.512 266.008 758.778C268.758 763.043 270.133 768.001 270.248 773.65C270.248 776.648 269.904 779.645 269.102 782.643C268.3 785.64 267.039 788.407 265.206 790.944C263.372 793.48 260.966 795.44 257.986 797.054C255.007 798.668 251.339 799.475 246.985 799.475C243.318 799.59 239.88 798.899 236.785 797.63C233.691 796.362 230.941 793.941 228.649 790.482C227.503 788.753 226.472 787.024 225.555 785.294C224.638 783.565 223.836 781.836 222.919 780.337C222.002 778.838 221.085 777.57 220.169 776.648C219.252 775.725 218.106 775.264 216.845 775.264L216.502 757.164ZM186.477 757.971L205.5 757.625L205.844 775.725L186.821 776.071L186.477 757.971Z" fill="white"/>
<path d="M238.162 869.226C239.651 869.687 241.256 870.263 242.631 870.955C244.121 871.647 245.381 872.454 246.527 873.492C247.673 874.529 248.705 875.797 249.621 877.411C250.538 879.025 251.111 880.985 251.455 883.291C251.684 884.213 251.799 885.597 252.143 887.326C252.372 889.056 252.83 890.9 253.288 892.745C253.861 894.59 254.549 896.319 255.466 897.818C256.383 899.316 257.643 900.354 259.133 900.815C260.852 901.392 262.342 901.161 263.832 900.123C265.207 899.086 266.238 897.702 266.811 895.973C267.269 894.59 267.384 893.437 267.155 892.284C266.926 891.131 266.582 890.093 266.123 889.171C265.665 888.249 265.092 887.442 264.405 886.635C263.832 885.943 263.259 885.251 262.915 884.675L276.781 874.298C280.677 877.642 283.199 881.908 284.345 886.865C285.491 891.823 285.261 897.011 283.542 902.314C282.626 905.081 281.365 907.848 279.531 910.5C277.812 913.151 275.635 915.342 273.114 917.071C270.593 918.8 267.728 919.953 264.29 920.414C260.967 920.876 257.185 920.53 253.059 919.146C249.507 917.993 246.527 916.264 244.006 914.074C241.485 911.883 239.651 908.655 238.62 904.62C238.047 902.66 237.589 900.7 237.359 898.74C237.13 896.78 236.786 894.935 236.443 893.206C236.099 891.477 235.64 890.093 235.067 888.825C234.494 887.557 233.578 886.865 232.432 886.404L238.162 869.226ZM209.512 860.233L227.619 866.113L222.118 883.291L204.011 877.411L209.512 860.233Z" fill="white"/>
<path d="M72.9108 792.673L83.11 802.011L74.286 811.696L64.0867 802.357L72.9108 792.673ZM89.1837 807.315C90.1005 808.122 90.9027 808.929 91.7049 809.851C92.5071 810.773 93.0801 811.696 93.5384 812.733C93.9968 813.771 94.3406 814.924 94.3406 816.307C94.4552 817.576 94.226 819.074 93.8822 820.804C93.7676 821.495 93.4239 822.418 93.0801 823.686C92.7363 824.954 92.3925 826.222 92.2779 827.606C92.0487 828.989 92.0487 830.373 92.2779 831.641C92.3925 832.909 92.9654 833.947 93.8822 834.754C94.799 835.676 95.945 835.907 97.2056 835.676C98.4662 835.445 99.4975 834.869 100.414 833.831C101.102 833.024 101.56 832.333 101.79 831.526C102.019 830.719 102.019 829.912 102.019 829.105C102.019 828.298 101.79 827.606 101.675 826.914C101.446 826.222 101.331 825.646 101.331 825.185L113.593 822.533C115.197 825.992 115.541 829.45 114.854 833.14C114.166 836.829 112.447 840.057 109.697 843.17C108.207 844.784 106.603 846.167 104.654 847.32C102.706 848.589 100.644 849.396 98.4661 849.741C96.2888 850.087 93.9968 849.972 91.5903 849.28C89.1837 848.589 86.8918 847.205 84.5998 845.015C82.6516 843.17 81.1618 841.095 80.1304 838.904C79.0991 836.714 78.8699 834.062 79.3283 830.949C79.5575 829.45 79.9013 828.067 80.245 826.683C80.7034 825.3 81.0472 824.032 81.2764 822.764C81.5056 821.495 81.7348 820.458 81.6202 819.42C81.6202 818.383 81.2765 817.691 80.5889 816.999L89.1837 807.315Z" fill="white"/>
<path d="M150.378 695.253L157.139 706.205L146.825 712.546L140.064 701.594L150.378 695.253ZM161.265 712.431C161.838 713.353 162.411 714.276 162.869 715.313C163.328 716.235 163.671 717.273 163.786 718.311C163.901 719.348 163.901 720.501 163.671 721.654C163.442 722.807 162.869 724.075 162.067 725.459C161.723 726.035 161.265 726.842 160.577 727.88C159.89 728.917 159.317 729.955 158.858 731.223C158.285 732.376 157.942 733.644 157.827 734.797C157.598 735.95 157.827 737.103 158.4 738.025C158.973 739.063 159.89 739.639 161.036 739.755C162.182 739.87 163.328 739.639 164.359 738.948C165.161 738.486 165.734 737.91 166.078 737.218C166.422 736.527 166.766 735.835 166.88 735.143C166.995 734.451 167.109 733.759 167.109 733.068C167.109 732.376 167.109 731.915 167.224 731.338L178.798 732.145C179.257 735.604 178.798 738.832 177.194 741.83C175.59 744.827 173.298 747.364 170.089 749.324C168.37 750.361 166.536 751.168 164.474 751.745C162.411 752.321 160.463 752.552 158.4 752.321C156.337 752.091 154.389 751.399 152.441 750.246C150.493 749.093 148.774 747.248 147.284 744.712C146.023 742.522 145.221 740.331 144.877 738.141C144.534 735.95 144.992 733.529 146.138 730.877C146.711 729.609 147.398 728.456 148.086 727.303C148.774 726.15 149.461 725.113 150.034 724.075C150.607 723.038 150.951 722.115 151.18 721.193C151.409 720.271 151.295 719.464 150.836 718.772L161.265 712.431Z" fill="white"/>
<path d="M287.324 710.125L295.231 723.038L283.083 730.647L275.176 717.735L287.324 710.125ZM300.159 730.417C300.846 731.569 301.419 732.607 301.992 733.76C302.565 734.913 302.909 736.066 303.138 737.334C303.367 738.602 303.253 739.87 303.024 741.254C302.68 742.637 302.107 744.136 301.19 745.75C300.846 746.442 300.273 747.364 299.471 748.517C298.669 749.67 297.981 751.054 297.408 752.437C296.835 753.821 296.377 755.204 296.148 756.703C295.918 758.086 296.148 759.354 296.835 760.507C297.523 761.776 298.669 762.352 300.044 762.467C301.419 762.583 302.794 762.237 304.055 761.545C304.972 760.968 305.659 760.277 306.118 759.47C306.576 758.663 306.92 757.856 307.034 757.049C307.264 756.242 307.264 755.435 307.264 754.627C307.264 753.82 307.264 753.244 307.378 752.668L321.015 753.59C321.588 757.625 321.015 761.43 319.182 765.119C317.348 768.693 314.598 771.69 310.816 773.996C308.868 775.264 306.576 776.187 304.284 776.878C301.878 777.57 299.471 777.801 297.064 777.57C294.658 777.34 292.251 776.533 289.959 775.034C287.667 773.65 285.605 771.46 283.771 768.462C282.167 765.926 281.25 763.39 280.906 760.738C280.562 758.086 281.021 755.204 282.396 752.206C283.083 750.708 283.771 749.324 284.688 747.941C285.49 746.557 286.292 745.289 286.98 744.136C287.667 742.868 288.126 741.83 288.355 740.793C288.584 739.755 288.47 738.833 288.011 738.026L300.159 730.417Z" fill="white"/>
<path d="M197.707 834.869C196.676 836.022 195.53 837.06 194.384 837.982C193.238 838.904 191.977 839.711 190.602 840.288C189.227 840.864 187.737 841.21 186.018 841.21C184.299 841.326 182.351 840.98 180.288 840.288C179.371 840.057 178.225 839.596 176.621 839.135C175.017 838.559 173.298 838.213 171.579 837.867C169.745 837.521 168.026 837.406 166.422 837.636C164.703 837.752 163.328 838.443 162.296 839.481C161.15 840.634 160.692 842.133 160.921 843.747C161.15 845.361 161.952 846.86 163.213 848.128C164.13 849.05 165.161 849.626 166.193 849.972C167.224 850.318 168.255 850.433 169.287 850.433C170.318 850.433 171.235 850.318 172.152 850.088C173.068 849.857 173.756 849.742 174.444 849.626L177.309 865.767C172.839 867.612 168.255 867.958 163.557 866.92C158.858 865.767 154.618 863.346 150.951 859.657C149.003 857.697 147.284 855.391 145.794 852.855C144.304 850.203 143.388 847.551 142.929 844.669C142.471 841.787 142.815 838.789 143.846 835.792C144.877 832.679 146.711 829.681 149.69 826.799C152.212 824.263 154.847 822.418 157.827 821.265C160.807 820.112 164.244 819.882 168.141 820.689C170.089 821.034 171.923 821.496 173.641 822.187C175.36 822.764 177.079 823.34 178.684 823.801C180.288 824.263 181.663 824.493 182.924 824.493C184.185 824.493 185.216 824.147 186.018 823.225L197.707 834.869ZM217.418 814.232L204.812 827.145L192.665 815.155L205.271 802.242L217.418 814.232Z" fill="white"/>
<path d="M332.818 905.657C332.36 906.695 331.901 907.617 331.328 908.54C330.755 909.462 330.182 910.269 329.38 910.961C328.578 911.652 327.661 912.229 326.63 912.69C325.484 913.151 324.223 913.382 322.619 913.497C321.931 913.497 321.129 913.612 319.868 913.612C318.722 913.612 317.462 913.728 316.201 913.958C314.941 914.189 313.795 914.535 312.763 914.996C311.732 915.457 310.93 916.264 310.471 917.186C310.013 918.224 310.013 919.262 310.586 920.299C311.159 921.337 311.961 922.029 313.107 922.605C313.909 922.951 314.711 923.181 315.514 923.066C316.316 923.066 317.003 922.836 317.576 922.605C318.264 922.374 318.837 922.029 319.295 921.683C319.868 921.337 320.327 921.106 320.671 920.876L326.4 930.791C323.879 933.096 321.014 934.48 317.691 934.826C314.368 935.172 311.044 934.595 307.721 933.096C306.002 932.289 304.283 931.252 302.679 929.868C301.074 928.485 299.814 926.986 298.897 925.141C297.98 923.297 297.407 921.337 297.293 919.031C297.178 916.841 297.751 914.304 299.012 911.768C300.043 909.577 301.418 907.617 303.022 906.234C304.627 904.735 306.919 903.813 309.555 903.352C310.93 903.121 312.19 903.006 313.565 903.006C314.826 903.006 316.087 902.89 317.233 902.775C318.379 902.66 319.41 902.429 320.212 902.199C321.014 901.853 321.587 901.392 321.931 900.585L332.818 905.657ZM340.84 887.442L335.568 898.971L324.796 894.013L330.068 882.484L340.84 887.442Z" fill="white"/>
<path d="M7.93295 872.569C8.27675 874.068 8.62056 875.452 8.84976 876.95C9.07895 878.449 9.07895 879.833 8.84976 881.216C8.62056 882.6 8.16215 884.098 7.35996 885.482C6.55777 886.981 5.41182 888.364 3.80745 889.863C3.11986 890.439 2.20307 891.246 0.942495 892.399C-0.318085 893.437 -1.46407 894.59 -2.61005 895.973C-3.75604 897.357 -4.67282 898.74 -5.47501 900.124C-6.16259 901.622 -6.39179 903.006 -6.048 904.505C-5.5896 906.119 -4.67282 907.156 -3.18305 907.848C-1.69327 908.425 -0.203486 908.54 1.51548 908.079C2.77606 907.733 3.69282 907.272 4.49501 906.58C5.29719 905.888 5.87019 905.081 6.32858 904.274C6.78698 903.467 7.13077 902.545 7.47457 901.738C7.70376 900.931 8.04757 900.239 8.27677 899.547L22.9453 905.196C22.2577 909.808 20.3096 913.843 16.9862 917.187C13.7775 920.53 9.65194 922.836 4.72422 924.104C2.08846 924.796 -0.661909 925.142 -3.52686 925.026C-6.39181 924.911 -9.14214 924.335 -11.6633 923.297C-14.2991 922.259 -16.591 920.53 -18.5392 918.109C-20.602 915.803 -22.0918 912.69 -23.0085 908.77C-23.8107 905.427 -24.0399 902.314 -23.5815 899.201C-23.1231 896.204 -21.5188 893.206 -18.9976 890.324C-17.737 888.941 -16.4764 887.557 -15.1012 886.404C-13.7261 885.251 -12.4655 884.098 -11.3195 882.945C-10.1735 881.792 -9.25676 880.755 -8.68377 879.717C-7.99618 878.68 -7.88159 877.642 -8.11078 876.489L7.93295 872.569ZM0.713287 845.822L5.068 862.77L-10.8611 866.92L-15.2158 849.972L0.713287 845.822Z" fill="white"/>
<path d="M262.226 221.295L278.499 231.21L269.216 246.775L252.943 236.86L262.226 221.295ZM288.125 236.514C289.5 237.321 290.875 238.243 292.136 239.165C293.396 240.088 294.542 241.241 295.459 242.509C296.376 243.777 297.064 245.276 297.522 247.005C297.98 248.734 298.21 250.81 297.98 253.115C297.98 254.038 297.866 255.421 297.637 257.266C297.522 258.995 297.407 260.84 297.522 262.8C297.637 264.76 297.98 266.489 298.553 268.218C299.126 269.948 300.043 271.216 301.533 272.023C303.023 272.945 304.627 273.061 306.231 272.369C307.836 271.677 309.096 270.524 310.128 269.026C310.815 267.873 311.274 266.604 311.274 265.452C311.274 264.299 311.159 263.261 310.93 262.223C310.701 261.186 310.242 260.263 309.899 259.341C309.44 258.534 309.096 257.727 308.867 257.035L324.682 250.118C327.661 254.268 329.151 258.88 329.266 264.068C329.266 269.141 327.89 274.098 325.025 278.94C323.536 281.477 321.588 283.783 319.296 285.973C317.004 288.164 314.482 289.778 311.618 290.931C308.753 292.084 305.658 292.545 302.335 292.199C299.012 291.968 295.459 290.7 291.677 288.394C288.469 286.434 285.948 284.129 283.999 281.362C282.051 278.595 281.02 275.136 280.791 270.985C280.676 268.91 280.676 266.95 280.905 264.875C281.134 262.915 281.249 261.071 281.249 259.341C281.249 257.612 281.134 256.113 280.905 254.73C280.561 253.461 279.874 252.424 278.842 251.847L288.125 236.514Z" fill="white"/>
<path d="M348.289 215.647L336.944 216.684L335.912 205.962L347.258 204.925L348.289 215.647ZM330.412 217.491C329.495 217.606 328.464 217.606 327.547 217.606C326.63 217.606 325.713 217.491 324.796 217.145C323.88 216.799 323.077 216.338 322.161 215.762C321.359 215.07 320.556 214.148 319.754 212.995C319.41 212.534 318.952 211.842 318.494 210.92C317.921 209.997 317.348 209.075 316.545 208.268C315.858 207.346 315.056 206.654 314.139 205.962C313.222 205.386 312.305 205.04 311.388 205.155C310.357 205.27 309.555 205.732 308.982 206.654C308.409 207.576 308.18 208.499 308.294 209.651C308.409 210.458 308.638 211.15 308.982 211.727C309.326 212.303 309.784 212.764 310.357 213.225C310.815 213.571 311.388 213.917 311.847 214.148C312.305 214.378 312.764 214.609 313.107 214.955L307.951 223.947C305.086 223.025 302.679 221.296 300.845 218.875C299.012 216.454 297.98 213.571 297.637 210.228C297.522 208.499 297.522 206.654 297.866 204.809C298.21 202.965 298.897 201.235 299.814 199.737C300.731 198.122 302.106 196.854 303.825 195.817C305.544 194.779 307.721 194.087 310.242 193.857C312.42 193.626 314.483 193.857 316.431 194.548C318.379 195.24 320.098 196.508 321.588 198.468C322.39 199.391 323.077 200.428 323.65 201.466C324.223 202.503 324.796 203.426 325.484 204.233C326.057 205.04 326.63 205.732 327.318 206.308C327.891 206.884 328.578 207.115 329.38 207L330.412 217.491Z" fill="white"/>
<path d="M263.83 320.215C262.914 319.408 261.997 318.485 261.08 317.563C260.278 316.641 259.476 315.718 259.017 314.565C258.444 313.412 258.101 312.26 257.986 310.761C257.871 309.377 257.986 307.763 258.444 305.919C258.559 305.227 258.903 304.189 259.247 302.806C259.59 301.422 259.82 300.039 260.049 298.54C260.163 297.041 260.163 295.658 259.934 294.274C259.705 292.891 259.132 291.738 258.215 290.931C257.184 290.009 255.923 289.663 254.663 290.009C253.287 290.354 252.256 291.046 251.225 292.084C250.537 292.891 250.079 293.813 249.85 294.62C249.62 295.542 249.62 296.35 249.735 297.157C249.85 297.964 249.964 298.771 250.193 299.462C250.423 300.154 250.537 300.846 250.652 301.307L237.588 304.535C235.869 300.961 235.296 297.157 235.869 293.237C236.556 289.317 238.275 285.743 241.025 282.399C242.515 280.67 244.234 279.056 246.297 277.788C248.36 276.404 250.537 275.482 252.829 275.021C255.121 274.56 257.642 274.56 260.163 275.251C262.684 275.943 265.32 277.327 267.841 279.517C270.019 281.362 271.738 283.552 272.769 285.858C273.915 288.279 274.259 291.046 273.915 294.274C273.686 295.888 273.457 297.387 272.998 298.886C272.655 300.385 272.311 301.768 271.967 303.152C271.738 304.535 271.623 305.688 271.623 306.726C271.738 307.763 272.082 308.57 272.769 309.262L263.83 320.215ZM281.822 335.318L270.592 325.633L279.76 314.911L290.99 324.596L281.822 335.318Z" fill="white"/>
<path d="M323.193 323.904C323.079 324.711 322.964 325.402 322.849 326.209C322.735 327.016 322.506 327.708 322.047 328.285C321.703 328.976 321.13 329.553 320.557 330.129C319.87 330.706 319.068 331.167 318.036 331.628C317.578 331.859 317.005 332.089 316.203 332.32C315.4 332.666 314.598 333.012 313.796 333.473C312.994 333.934 312.306 334.395 311.619 335.087C311.046 335.663 310.702 336.355 310.587 337.162C310.473 337.969 310.817 338.776 311.39 339.237C311.963 339.814 312.765 340.16 313.682 340.16C314.369 340.275 314.942 340.16 315.4 339.929C315.859 339.698 316.317 339.468 316.776 339.122C317.119 338.776 317.463 338.43 317.807 338.084C318.036 337.738 318.38 337.393 318.609 337.162L324.912 342.581C323.766 344.771 322.047 346.385 319.87 347.423C317.692 348.46 315.286 348.922 312.65 348.691C311.275 348.576 309.9 348.23 308.41 347.653C307.035 347.077 305.774 346.385 304.743 345.348C303.711 344.31 302.795 343.042 302.222 341.543C301.649 340.044 301.42 338.2 301.649 336.124C301.763 334.395 302.336 332.781 303.024 331.397C303.826 330.014 305.087 328.861 306.806 327.823C307.722 327.362 308.525 326.901 309.441 326.555C310.358 326.209 311.16 325.864 311.963 325.518C312.765 325.172 313.338 324.826 313.796 324.365C314.255 324.019 314.598 323.442 314.598 322.866L323.193 323.904ZM324.339 309.492L323.537 318.6L314.942 317.793L315.744 308.685L324.339 309.492Z" fill="white"/>
<path d="M184.415 139.324L181.206 120.417L198.969 117.304L202.178 136.212L184.415 139.324ZM179.602 109.58C179.373 108.311 178.685 107.389 177.654 106.582C176.508 105.775 175.133 105.198 173.528 104.622C171.924 104.046 170.09 103.469 168.257 102.893C166.309 102.316 164.475 101.624 162.641 100.817C158.86 99.0881 155.995 96.8976 154.161 94.1306C152.328 91.3637 151.067 88.1355 150.379 84.4463C149.692 80.1805 149.806 76.376 150.723 73.1478C151.64 69.9197 153.244 67.1527 155.307 64.8469C157.37 62.5411 159.891 60.8118 162.641 59.4283C165.506 58.0448 168.371 57.1225 171.236 56.6614C176.737 55.739 181.779 56.2002 186.592 58.0448C191.291 59.8895 195.073 63.0023 197.823 67.3833L185.676 79.7194C185.103 79.2582 184.53 78.6818 183.842 77.99C183.154 77.2983 182.467 76.6065 181.55 75.9148C180.748 75.2231 179.717 74.7619 178.685 74.416C177.654 74.0702 176.393 73.9549 175.018 74.1854C173.184 74.5313 171.695 75.3383 170.434 76.6065C169.288 77.8747 168.83 79.3735 169.059 81.2181C169.288 82.8322 170.205 84.2157 171.58 85.3686C172.955 86.5215 174.56 87.4438 176.279 88.2508C177.998 89.0579 179.717 89.7496 181.436 90.2108C183.154 90.6719 184.415 91.1331 185.332 91.3637C187.624 92.0554 189.457 92.9777 190.833 94.0153C192.322 95.053 193.468 96.3211 194.27 97.5893C195.073 98.8575 195.76 100.356 196.219 101.855C196.677 103.354 197.021 104.968 197.25 106.582L179.602 109.58Z" fill="white"/>
<path d="M317.462 36.1399L333.964 45.5937L325.025 61.2731L308.523 51.8193L317.462 36.1399ZM343.476 51.3582C344.507 51.9346 345.768 52.0499 347.028 51.704C348.289 51.3582 349.664 50.6664 351.154 49.7441C352.644 48.8218 354.133 47.7842 355.852 46.7466C357.457 45.5937 359.176 44.5561 361.009 43.6337C364.791 41.7891 368.229 40.9821 371.552 41.3279C374.876 41.6738 378.199 42.7114 381.408 44.5561C385.19 46.7466 387.94 49.1677 389.888 52.0499C391.722 54.8169 392.868 57.8144 393.326 60.812C393.784 63.8095 393.555 66.9223 392.868 70.0352C392.065 73.148 391.034 75.915 389.544 78.4514C386.794 83.2935 383.241 86.9828 378.772 89.5192C374.303 92.0556 369.604 92.9779 364.447 92.4014L362.728 75.1079C363.416 74.9926 364.218 74.8774 365.249 74.8774C366.166 74.8774 367.198 74.6468 368.229 74.4162C369.26 74.1856 370.292 73.7245 371.209 73.148C372.125 72.5716 373.042 71.6492 373.73 70.381C374.646 68.767 374.99 67.0376 374.761 65.3083C374.532 63.5789 373.615 62.3107 372.125 61.3884C370.75 60.5814 369.146 60.3508 367.427 60.6967C365.708 61.0425 363.989 61.619 362.27 62.426C360.551 63.2331 358.947 64.1554 357.457 65.193C355.967 66.2306 354.821 66.9223 354.019 67.4988C352.071 68.767 350.237 69.6893 348.404 70.0352C346.685 70.4963 344.966 70.6116 343.476 70.381C341.871 70.2657 340.382 69.8046 339.006 69.1129C337.517 68.4211 336.142 67.7294 334.652 66.9223L343.476 51.3582Z" fill="white"/>
<path d="M-21.6334 804.778L-6.27729 799.014L-0.891172 813.656L-16.2473 819.42L-21.6334 804.778ZM2.43217 795.44C3.69274 794.979 5.06792 794.518 6.32849 794.172C7.70367 793.826 8.96425 793.711 10.3394 793.711C11.7146 793.826 13.0898 794.172 14.465 794.748C15.8401 795.325 17.3299 796.362 18.8197 797.746C19.5073 798.322 20.3095 799.129 21.4554 800.167C22.6014 801.204 23.7474 802.242 25.1226 803.164C26.4977 804.087 27.8729 804.894 29.3627 805.355C30.8525 805.931 32.2277 805.931 33.4882 805.47C34.978 804.894 35.8948 803.971 36.2386 802.473C36.697 800.974 36.5824 799.59 36.0094 798.092C35.551 796.939 34.978 796.016 34.2904 795.44C33.6028 794.748 32.8007 794.287 31.8839 793.941C31.0817 793.595 30.1649 793.365 29.3627 793.134C28.5605 793.019 27.8729 792.788 27.3 792.558L31.0817 778.146C35.4364 778.377 39.4473 779.761 42.8853 782.527C46.3232 785.294 48.8444 788.868 50.5633 793.365C51.4801 795.786 52.0531 798.322 52.1677 800.974C52.3969 803.626 52.1677 806.277 51.3655 808.814C50.5634 811.35 49.1882 813.656 47.24 815.846C45.2918 818.037 42.5415 819.651 38.9889 821.034C36.0094 822.187 33.0299 822.648 30.1649 822.418C27.3 822.187 24.435 821.15 21.4554 818.959C19.9657 817.922 18.7051 816.769 17.4445 815.616C16.1839 814.463 15.038 813.31 13.892 812.388C12.746 811.465 11.7146 810.658 10.5686 810.197C9.53725 809.736 8.50585 809.621 7.47447 809.967L2.43217 795.44Z" fill="white"/>
<path d="M28.7907 759.815L11.8301 756.818L14.5805 740.677L31.541 743.675L28.7907 759.815ZM1.9747 755.434C0.484921 755.204 -0.890272 754.858 -2.26545 754.512C-3.64063 754.166 -4.9012 753.59 -6.16178 752.783C-7.30776 751.975 -8.45373 750.938 -9.37052 749.67C-10.4019 748.401 -11.2041 746.672 -11.7771 744.597C-12.0063 743.79 -12.4647 742.522 -12.8085 741.023C-13.2669 739.524 -13.8398 737.91 -14.5274 736.296C-15.215 734.682 -16.1318 733.298 -17.1632 732.03C-18.1946 730.762 -19.4552 730.07 -20.8303 729.725C-22.4347 729.494 -23.8099 729.84 -24.9559 730.877C-26.1019 731.915 -26.7894 733.298 -27.1332 735.028C-27.3624 736.296 -27.2479 737.449 -27.0187 738.371C-26.6749 739.409 -26.2165 740.216 -25.6435 741.023C-25.0705 741.83 -24.4975 742.522 -23.8099 743.098C-23.1223 743.675 -22.6639 744.251 -22.2055 744.712L-33.207 755.78C-37.1033 753.244 -39.8536 749.785 -41.5726 745.519C-43.2916 741.254 -43.6354 736.642 -42.8332 731.569C-42.3748 728.917 -41.5726 726.381 -40.312 723.729C-39.0514 721.193 -37.4471 718.887 -35.3843 717.043C-33.3215 715.198 -30.915 713.814 -27.9354 712.892C-25.0705 711.97 -21.6325 711.855 -17.7362 712.546C-14.4129 713.123 -11.5479 714.276 -9.02673 716.005C-6.50557 717.734 -4.55742 720.271 -2.95305 723.729C-2.15086 725.459 -1.57786 727.188 -1.11947 728.917C-0.661073 730.647 -0.0880613 732.261 0.370332 733.76C0.943322 735.258 1.51628 736.527 2.20387 737.449C2.89146 738.487 3.80827 739.063 4.83965 739.294L1.9747 755.434Z" fill="white"/>
<path d="M47.6984 713.815C48.1568 713.354 48.6152 712.892 49.1882 712.431C49.6466 711.97 50.2196 711.624 50.7926 711.394C51.3656 711.163 52.0532 711.048 52.7408 710.932C53.4283 710.932 54.3451 711.048 55.2619 711.278C55.6057 711.394 56.1787 711.509 56.8663 711.739C57.5539 711.97 58.2415 712.085 59.0436 712.316C59.8458 712.431 60.5334 712.431 61.3356 712.431C62.0232 712.316 62.7108 712.085 63.1692 711.624C63.6276 711.048 63.8568 710.471 63.7422 709.78C63.6276 709.088 63.2838 708.511 62.7108 707.935C62.2524 707.589 61.9086 707.243 61.4502 707.128C60.9918 707.013 60.5334 706.897 60.075 707.013C59.6166 707.013 59.2729 707.128 58.8145 707.243C58.4707 707.358 58.1268 707.358 57.7831 707.474L56.5225 700.556C58.4707 699.749 60.4188 699.519 62.4816 699.98C64.5443 700.441 66.3779 701.479 67.9823 703.093C68.8991 703.9 69.5867 704.937 70.2743 705.975C70.9619 707.128 71.3056 708.281 71.5348 709.549C71.764 710.817 71.6494 712.085 71.191 713.354C70.7326 714.622 69.9304 716.005 68.7845 717.273C67.7531 718.426 66.6071 719.233 65.3465 719.694C64.0859 720.271 62.5962 720.271 60.8772 720.04C60.075 719.925 59.2728 719.694 58.4706 719.464C57.6685 719.233 56.9809 719.003 56.2933 718.772C55.6057 718.542 55.0327 718.542 54.4597 718.542C53.8867 718.542 53.4284 718.772 53.0846 719.118L47.6984 713.815ZM39.2182 722.807L44.6043 717.158L49.8758 722.231L44.4897 727.88L39.2182 722.807Z" fill="white"/>
<path d="M90.7874 683.147L74.3998 677.383L79.9006 661.819L96.2881 667.583L90.7874 683.147ZM64.7736 674.27C63.3984 673.809 62.0233 673.232 60.6481 672.656C59.2729 672.08 58.1269 671.272 57.0956 670.235C56.0642 669.313 55.1474 668.044 54.3452 666.546C53.543 665.047 53.0846 663.317 52.7408 661.127C52.6262 660.205 52.397 659.052 52.2824 657.438C52.0532 655.824 51.8241 654.21 51.3657 652.48C50.9073 650.751 50.3343 649.252 49.4175 647.753C48.6153 646.37 47.4693 645.332 46.0941 644.871C44.6044 644.295 43.1146 644.525 41.854 645.447C40.4788 646.37 39.562 647.638 38.9891 649.252C38.5307 650.405 38.4161 651.558 38.6453 652.595C38.7599 653.633 39.1036 654.555 39.562 655.478C40.0204 656.4 40.4788 657.092 41.0518 657.784C41.6248 658.475 42.0832 659.052 42.3124 659.628L29.4774 668.736C26.0395 665.508 23.8621 661.703 22.8307 657.092C21.9139 652.48 22.2577 647.869 23.9767 643.026C24.8935 640.49 26.1541 638.069 27.7585 635.648C29.3628 633.342 31.4256 631.382 33.7175 629.768C36.0095 628.269 38.7599 627.232 41.854 626.886C44.9482 626.54 48.2715 627.001 52.0532 628.269C55.262 629.422 58.0123 631.036 60.1897 633.112C62.3671 635.187 63.9714 638.184 64.8882 641.874C65.3466 643.718 65.6904 645.563 65.9196 647.292C66.1488 649.137 66.378 650.751 66.6072 652.365C66.8364 653.979 67.2948 655.247 67.7532 656.4C68.2116 657.553 69.0138 658.245 70.1597 658.591L64.7736 674.27Z" fill="white"/>
<path d="M109.696 911.768L90.4434 905.312L96.5171 886.981L115.77 893.437L109.696 911.768ZM79.2128 901.968C77.6084 901.392 76.004 900.816 74.3996 900.124C72.7953 899.432 71.4201 898.51 70.1595 897.472C68.8989 896.319 67.8675 894.936 66.9508 893.206C66.034 891.477 65.3464 889.402 65.0026 886.865C64.7734 885.828 64.5442 884.444 64.315 882.484C64.0858 880.64 63.6274 878.68 63.0544 876.72C62.4814 874.76 61.6792 872.915 60.7625 871.301C59.7311 869.687 58.4705 868.534 56.8661 868.073C55.0326 867.497 53.4282 867.727 51.8238 868.765C50.3341 869.802 49.188 871.301 48.6151 873.146C48.1567 874.529 48.0421 875.913 48.2713 877.066C48.5005 878.219 48.8443 879.372 49.4173 880.409C49.9902 881.447 50.5632 882.369 51.2508 883.061C51.9384 883.868 52.3968 884.56 52.8552 885.251L38.0721 896.204C33.9465 892.515 31.3108 888.134 30.0502 882.83C28.7896 877.527 29.1334 871.993 31.0816 866.344C32.113 863.346 33.4881 860.464 35.3217 857.697C37.1553 854.93 39.4472 852.624 42.1976 850.78C44.948 848.935 48.0421 847.782 51.5946 847.206C55.1472 846.629 59.1581 847.206 63.5128 848.589C67.2945 849.857 70.5033 851.702 73.1391 854.123C75.7748 856.544 77.723 859.888 78.869 864.269C79.442 866.344 79.9003 868.534 80.1295 870.61C80.3587 872.685 80.7025 874.645 81.0463 876.489C81.3901 878.334 81.8485 879.833 82.5361 881.216C83.1091 882.484 84.1405 883.407 85.2864 883.753L79.2128 901.968Z" fill="white"/>
<path d="M-19.5706 685.915L-8.22531 684.877L-7.19393 695.599L-18.5391 696.637L-19.5706 685.915ZM-1.69323 684.07C-0.776448 683.955 0.254936 683.955 1.17172 683.955C2.08851 683.955 3.00529 684.07 3.92207 684.416C4.83886 684.762 5.64107 685.223 6.55785 685.799C7.36004 686.491 8.16223 687.413 8.96442 688.566C9.30822 689.027 9.76658 689.719 10.225 690.642C10.798 691.564 11.371 692.486 12.1732 693.293C12.8607 694.215 13.6629 694.907 14.5797 695.599C15.4965 696.175 16.4133 696.521 17.3301 696.406C18.3615 696.291 19.1637 695.83 19.7366 694.907C20.3096 693.985 20.5388 693.063 20.4242 691.91C20.3096 691.103 20.0804 690.411 19.7366 689.834C19.3928 689.258 18.9344 688.797 18.3614 688.336C17.9031 687.99 17.3301 687.644 16.8717 687.413C16.4133 687.183 15.9549 686.952 15.6111 686.606L20.768 677.614C23.633 678.536 26.0395 680.265 27.8731 682.687C29.7067 685.108 30.7381 687.99 31.0819 691.333C31.1965 693.063 31.1964 694.907 30.8526 696.752C30.5089 698.597 29.8213 700.326 28.9045 701.825C27.9877 703.439 26.6125 704.707 24.8936 705.745C23.1746 706.782 20.9972 707.474 18.4761 707.704C16.2987 707.935 14.2359 707.704 12.2878 707.013C10.3396 706.321 8.62062 705.053 7.13084 703.093C6.32865 702.171 5.64104 701.133 5.06805 700.095C4.49506 699.058 3.9221 698.135 3.23451 697.328C2.66152 696.521 2.08852 695.83 1.40093 695.253C0.827941 694.677 0.140331 694.446 -0.661856 694.561L-1.69323 684.07Z" fill="white"/>
<path d="M108.779 657.092L119.437 658.821L117.832 668.967L107.175 667.237L108.779 657.092ZM125.74 659.743C126.656 659.859 127.573 660.089 128.375 660.32C129.292 660.551 130.094 660.896 130.782 661.358C131.584 661.819 132.272 662.51 132.845 663.317C133.418 664.124 133.991 665.162 134.449 666.43C134.678 667.007 134.907 667.699 135.137 668.621C135.48 669.543 135.824 670.581 136.283 671.618C136.741 672.656 137.314 673.463 138.002 674.27C138.689 675.077 139.491 675.538 140.408 675.654C141.439 675.769 142.242 675.538 142.929 674.847C143.617 674.155 144.075 673.232 144.304 672.195C144.419 671.388 144.419 670.696 144.19 670.12C143.961 669.543 143.731 668.967 143.273 668.506C142.929 668.044 142.471 667.583 142.127 667.237C141.669 666.891 141.325 666.546 141.096 666.2L147.972 659.167C150.493 660.781 152.212 662.856 153.243 665.508C154.274 668.16 154.618 671.157 154.045 674.27C153.816 675.884 153.243 677.614 152.555 679.228C151.753 680.842 150.837 682.225 149.576 683.493C148.315 684.646 146.711 685.569 144.877 686.145C143.044 686.722 140.866 686.837 138.46 686.376C136.397 686.03 134.564 685.338 132.959 684.3C131.355 683.263 130.094 681.649 129.063 679.458C128.604 678.421 128.146 677.268 127.802 676.23C127.458 675.192 127.115 674.155 126.771 673.232C126.427 672.31 126.083 671.503 125.625 670.927C125.167 670.35 124.594 669.889 123.906 669.774L125.74 659.743Z" fill="white"/>
<path d="M-4.78775 624.004C-4.67315 623.082 -4.55857 622.044 -4.44397 621.122C-4.32938 620.199 -3.9856 619.277 -3.52721 618.47C-3.06882 617.663 -2.49582 616.856 -1.69364 616.164C-0.891456 615.473 0.139937 614.781 1.40051 614.204C1.9735 613.974 2.66108 613.628 3.69246 613.282C4.72384 612.936 5.64063 612.36 6.672 611.898C7.70338 611.322 8.50555 610.63 9.30773 609.939C10.1099 609.132 10.4537 608.324 10.5683 607.287C10.6829 606.249 10.3391 605.327 9.53694 604.635C8.73476 603.943 7.81798 603.598 6.67201 603.482C5.86982 603.367 5.06761 603.482 4.49462 603.828C3.92164 604.059 3.34866 604.405 2.89026 604.866C2.43187 605.327 1.97348 605.788 1.62968 606.249C1.28589 606.71 0.942113 607.056 0.712919 607.402L-7.19431 600.715C-5.81913 597.948 -3.75639 595.988 -1.00604 594.605C1.7443 593.221 4.72383 592.645 8.04716 592.991C9.76612 593.106 11.5997 593.567 13.3187 594.144C15.0376 594.836 16.642 595.758 18.0172 597.026C19.3923 598.294 20.4237 599.793 21.2259 601.753C22.0281 603.598 22.2573 605.903 22.0281 608.44C21.7989 610.63 21.2259 612.706 20.3091 614.435C19.3923 616.164 17.788 617.663 15.6106 618.931C14.5792 619.508 13.4333 620.084 12.4019 620.545C11.2559 621.006 10.2245 621.352 9.30773 621.813C8.39095 622.275 7.58877 622.736 7.01578 623.197C6.4428 623.658 6.09901 624.35 5.98441 625.042L-4.78775 624.004ZM-6.04833 642.105L-5.13156 630.691L5.6406 631.613L4.72383 643.027L-6.04833 642.105Z" fill="white"/>
<path d="M70.7331 136.211C70.5039 137.018 70.6185 137.71 70.9623 138.517C71.4207 139.324 71.9937 140.016 72.6812 140.823C73.4834 141.63 74.2856 142.437 75.2024 143.359C76.1192 144.166 77.036 145.204 77.8382 146.242C79.5571 148.317 80.4739 150.392 80.7031 152.583C80.9323 154.658 80.7031 156.964 80.0155 159.154C79.2134 161.806 78.0674 163.881 76.5776 165.495C75.0878 167.109 73.3688 168.147 71.5353 168.839C69.7017 169.53 67.7535 169.761 65.8054 169.761C63.8572 169.761 61.909 169.415 60.0755 168.839C56.6375 167.801 53.8872 166.072 51.8244 163.535C49.6471 161.114 48.5011 158.232 48.1573 155.004L58.5857 151.545C58.8149 152.006 58.9295 152.467 59.0441 153.044C59.1587 153.62 59.3879 154.197 59.7317 154.888C60.0755 155.465 60.4193 156.041 60.9923 156.618C61.4507 157.194 62.1382 157.54 63.055 157.771C64.201 158.117 65.2324 158.117 66.2638 157.771C67.2952 157.425 67.9827 156.618 68.3265 155.58C68.6703 154.543 68.5557 153.505 68.0973 152.467C67.6389 151.43 67.066 150.392 66.2638 149.47C65.4616 148.547 64.6594 147.625 63.8572 146.818C63.055 146.011 62.3674 145.435 62.0236 144.973C60.9923 143.936 60.1901 142.898 59.6171 141.861C59.1587 140.823 58.8149 139.785 58.7003 138.748C58.5857 137.71 58.7003 136.788 58.8149 135.75C59.0441 134.713 59.2733 133.79 59.6171 132.753L70.7331 136.211ZM76.5776 117.88L72.9105 129.525L61.909 126.066L65.6908 114.422L76.5776 117.88Z" fill="white"/>
<path d="M-16.4765 29.7987C-16.3619 30.6057 -15.9035 31.1822 -15.1013 31.6433C-14.4137 32.1045 -13.497 32.4504 -12.4656 32.7962C-11.4342 33.1421 -10.2882 33.488 -9.02763 33.7185C-7.76705 34.0644 -6.62106 34.4103 -5.36048 34.8714C-2.83932 35.9091 -1.00575 37.1772 0.254825 39.0219C1.5154 40.7512 2.31758 42.8265 2.89057 45.1323C3.46356 47.8992 3.46356 50.205 2.89057 52.3955C2.31758 54.4708 1.4008 56.3154 0.140219 57.8142C-1.12036 59.3129 -2.61014 60.4658 -4.44371 61.5035C-6.16268 62.4258 -7.99626 63.1175 -9.82983 63.4634C-13.2678 64.1551 -16.5911 64.0398 -19.5707 63.0022C-22.6648 61.9646 -25.0714 60.0047 -27.0196 57.353L-19.5707 49.2827C-19.2269 49.5133 -18.7685 49.9744 -18.4247 50.3203C-17.9663 50.7815 -17.5079 51.1273 -16.9349 51.5885C-16.3619 51.9344 -15.7889 52.2802 -15.1013 52.5108C-14.4137 52.7414 -13.6116 52.7414 -12.6948 52.5108C-11.5488 52.2802 -10.632 51.7038 -9.82983 50.8968C-9.14224 50.0897 -8.79844 49.0521 -9.02763 48.0145C-9.25683 46.9769 -9.82982 46.1699 -10.7466 45.4781C-11.6634 44.7864 -12.6948 44.2099 -13.8408 43.7488C-14.9867 43.2876 -16.1327 42.9418 -17.1641 42.5959C-18.3101 42.3653 -19.1123 42.1347 -19.6852 41.9041C-21.175 41.5583 -22.321 40.9818 -23.2378 40.2901C-24.1546 39.5983 -24.9568 38.9066 -25.5298 38.0996C-26.1027 37.2925 -26.5612 36.3702 -26.9049 35.4479C-27.2487 34.5256 -27.4779 33.488 -27.7071 32.4504L-16.4765 29.7987ZM-20.1437 10.8911L-17.6225 22.8813L-28.8531 25.3024L-31.3743 13.3122L-20.1437 10.8911Z" fill="white"/>
<path d="M132.616 193.164L117.375 195.24L115.426 180.828L130.668 178.753L132.616 193.164ZM108.551 196.162C107.519 196.277 106.717 196.854 106.144 197.661C105.456 198.583 104.883 199.621 104.425 200.889C103.967 202.157 103.394 203.656 102.935 205.155C102.477 206.653 101.789 208.152 101.102 209.651C99.612 212.648 97.7784 214.954 95.4864 216.338C93.1945 217.721 90.5587 218.644 87.5791 219.105C84.1412 219.566 81.047 219.335 78.5259 218.528C76.0047 217.606 73.8274 216.338 71.9938 214.608C70.2748 212.879 68.8997 210.804 67.8683 208.498C66.8369 206.192 66.1493 203.771 65.9201 201.465C65.3471 196.969 65.8055 192.819 67.4099 189.129C69.0143 185.325 71.65 182.442 75.2026 180.252L84.7142 190.397C84.3704 190.859 83.7974 191.32 83.2244 191.781C82.6514 192.242 82.0784 192.819 81.5054 193.51C80.9325 194.202 80.5887 195.009 80.2449 195.816C79.9011 196.738 79.7865 197.661 80.0157 198.814C80.2449 200.312 80.8178 201.581 81.8492 202.618C82.8806 203.656 84.0266 204.002 85.5164 203.886C86.777 203.656 87.9229 203.079 88.8397 202.042C89.7565 201.004 90.6733 199.736 91.3609 198.352C92.0485 196.969 92.6215 195.586 93.0799 194.202C93.5383 192.819 93.882 191.781 94.1112 191.089C94.7988 189.245 95.4864 187.861 96.4032 186.708C97.32 185.555 98.3514 184.633 99.3828 184.057C100.414 183.365 101.675 182.904 102.821 182.673C104.081 182.327 105.342 182.097 106.602 181.981L108.551 196.162Z" fill="white"/>
<path d="M253.059 64.3861L248.016 74.6469L238.39 69.8048L243.432 59.5439L253.059 64.3861ZM244.922 80.5267C244.578 81.2185 244.578 81.9102 244.808 82.7172C245.037 83.5243 245.495 84.3313 246.068 85.1383C246.641 85.9454 247.329 86.8677 248.016 87.79C248.704 88.7123 249.391 89.7499 249.964 90.7875C251.225 92.9781 251.798 95.0533 251.683 97.0132C251.569 98.9731 251.11 101.048 250.079 103.008C248.933 105.314 247.558 107.159 245.954 108.312C244.349 109.58 242.63 110.272 240.797 110.617C238.963 110.963 237.129 110.963 235.296 110.617C233.462 110.272 231.743 109.695 230.139 108.888C227.159 107.389 224.867 105.314 223.263 102.778C221.659 100.241 220.971 97.3591 221.086 94.2462L231.285 92.6322C231.4 93.0933 231.514 93.5545 231.514 94.131C231.514 94.7074 231.743 95.2839 231.858 95.8603C232.087 96.4368 232.316 97.0132 232.775 97.5897C233.119 98.1661 233.692 98.6273 234.494 98.9731C235.525 99.4343 236.442 99.6649 237.473 99.4343C238.505 99.2037 239.192 98.6273 239.765 97.7049C240.224 96.7826 240.338 95.8603 239.994 94.8227C239.765 93.7851 239.307 92.7475 238.734 91.7099C238.161 90.6723 237.588 89.7499 236.9 88.9429C236.213 88.1359 235.754 87.4441 235.41 86.983C234.608 85.8301 234.035 84.7925 233.692 83.7549C233.348 82.7172 233.233 81.6796 233.348 80.7573C233.348 79.835 233.577 78.9127 233.921 77.9903C234.265 77.068 234.608 76.261 235.067 75.3387L244.922 80.5267Z" fill="white"/>
<path d="M249.047 214.033L239.306 218.414L235.181 209.19L244.921 204.809L249.047 214.033ZM233.691 220.604C233.003 220.835 232.659 221.411 232.316 222.103C232.086 222.795 231.857 223.602 231.743 224.639C231.628 225.562 231.628 226.599 231.513 227.752C231.513 228.905 231.399 229.943 231.17 231.095C230.826 233.401 229.909 235.246 228.648 236.629C227.388 238.013 225.783 239.166 223.95 239.973C221.773 241.01 219.71 241.356 217.762 241.356C215.928 241.241 214.209 240.78 212.719 239.973C211.23 239.166 209.854 238.013 208.823 236.745C207.677 235.361 206.76 233.978 206.187 232.479C204.927 229.597 204.468 226.714 204.812 223.947C205.156 221.065 206.302 218.644 208.25 216.569L216.501 221.526C216.386 221.872 216.043 222.333 215.813 222.679C215.47 223.14 215.24 223.602 215.011 224.178C214.782 224.755 214.667 225.331 214.553 226.023C214.553 226.714 214.667 227.291 214.897 228.098C215.355 229.02 215.928 229.712 216.845 230.288C217.647 230.75 218.564 230.75 219.481 230.404C220.283 230.058 220.97 229.366 221.314 228.444C221.773 227.521 222.002 226.599 222.231 225.446C222.46 224.409 222.575 223.371 222.575 222.333C222.575 221.296 222.689 220.604 222.689 220.028C222.804 218.759 223.033 217.607 223.377 216.684C223.721 215.762 224.294 214.955 224.867 214.263C225.44 213.571 226.127 213.11 226.929 212.649C227.732 212.188 228.534 211.842 229.336 211.381L233.691 220.604Z" fill="white"/>
<path d="M234.379 270.409L220.283 271.101L219.71 257.727L233.806 257.036L234.379 270.409ZM212.032 271.101C211.115 271.101 210.313 271.562 209.626 272.254C208.938 273.061 208.365 273.983 207.792 275.136C207.219 276.289 206.646 277.557 206.073 278.941C205.5 280.324 204.813 281.592 204.01 282.976C202.406 285.627 200.458 287.587 198.28 288.625C196.103 289.778 193.582 290.354 190.832 290.47C187.623 290.585 184.873 290.239 182.581 289.201C180.289 288.164 178.455 286.78 176.965 285.051C175.475 283.322 174.444 281.362 173.642 279.056C172.954 276.865 172.496 274.675 172.381 272.484C172.152 268.334 172.954 264.645 174.788 261.301C176.621 257.958 179.257 255.537 182.581 253.807L190.488 263.953C190.144 264.299 189.571 264.645 188.998 265.106C188.425 265.452 187.852 266.028 187.279 266.605C186.706 267.181 186.248 267.873 185.904 268.565C185.56 269.372 185.331 270.294 185.445 271.331C185.56 272.715 185.904 273.868 186.821 274.905C187.623 275.943 188.769 276.404 190.029 276.289C191.29 276.289 192.321 275.713 193.238 274.79C194.155 273.868 195.072 272.83 195.759 271.562C196.562 270.294 197.134 269.141 197.707 267.873C198.28 266.605 198.624 265.682 198.968 265.106C199.656 263.492 200.572 262.224 201.489 261.301C202.406 260.379 203.437 259.572 204.469 259.111C205.5 258.65 206.646 258.304 207.792 258.073C208.938 257.958 210.199 257.843 211.345 257.727L212.032 271.101Z" fill="white"/>
<path d="M104.998 70.7264C105.456 69.5735 105.456 68.4206 104.883 67.1524C104.311 65.8842 103.508 64.616 102.477 63.2325C101.446 61.849 100.185 60.4655 98.9244 58.9668C97.5492 57.468 96.4033 55.8539 95.2573 54.1246C92.8507 50.6659 91.7047 47.2072 91.5901 43.8638C91.4755 40.5204 92.1631 37.0617 93.5383 33.603C95.1427 29.5678 97.2054 26.455 99.8412 24.1492C102.362 21.9587 105.113 20.3446 108.092 19.5376C111.072 18.7305 114.051 18.5 117.145 18.8458C120.24 19.1917 123.219 19.8834 125.855 21.0363C131.012 23.1116 135.137 26.2244 138.117 30.3748C141.096 34.5253 142.701 39.1369 142.815 44.2096L126.084 48.2448C125.855 47.5531 125.626 46.746 125.511 45.8237C125.397 44.9014 125.053 43.8638 124.709 42.9415C124.365 41.9038 123.792 40.9815 122.99 40.0592C122.302 39.1369 121.271 38.4451 120.01 37.984C118.291 37.2922 116.573 37.177 114.854 37.6381C113.135 38.0993 111.989 39.1369 111.301 40.7509C110.728 42.2497 110.613 43.8638 111.186 45.5931C111.759 47.3225 112.562 48.9365 113.593 50.5506C114.624 52.1647 115.77 53.6634 116.916 54.9316C118.062 56.1998 118.979 57.2374 119.552 58.0445C121.042 59.8891 122.188 61.6184 122.875 63.2325C123.563 64.9619 123.907 66.5759 123.907 68.0747C123.907 69.6888 123.678 71.1875 123.334 72.6863C122.875 74.1851 122.302 75.7991 121.729 77.2979L104.998 70.7264ZM93.4237 98.6266L100.643 80.8719L117.26 87.674L110.04 105.429L93.4237 98.6266Z" fill="white"/>
<path d="M24.7793 204.348L19.737 191.32L31.8844 186.593L36.9268 199.621L24.7793 204.348ZM17.1013 183.711C16.7575 182.904 16.1845 182.212 15.2677 181.866C14.3509 181.52 13.3195 181.175 12.0589 181.059C10.7984 180.829 9.42318 180.713 8.048 180.598C6.67283 180.483 5.18306 180.252 3.69329 179.906C0.713736 179.215 -1.57823 178.062 -3.29721 176.332C-5.01618 174.603 -6.39136 172.528 -7.30814 169.991C-8.45413 166.994 -8.91253 164.342 -8.68334 161.921C-8.45414 159.5 -7.76653 157.31 -6.62054 155.35C-5.47456 153.39 -3.98479 151.776 -2.15122 150.392C-0.317654 149.009 1.63052 147.971 3.57869 147.164C7.36042 145.665 11.0276 145.319 14.6947 145.896C18.3619 146.588 21.456 148.202 24.0917 150.853L17.2159 161.345C16.7575 161.114 16.2991 160.768 15.7261 160.307C15.1531 159.846 14.5801 159.5 13.8925 159.154C13.2049 158.808 12.4027 158.578 11.6006 158.462C10.7984 158.347 9.8816 158.462 8.96481 158.808C7.70423 159.27 6.78745 160.077 6.09986 161.114C5.41227 162.152 5.29765 163.305 5.75604 164.573C6.21443 165.726 7.01663 166.533 8.16261 167.109C9.30859 167.686 10.5692 168.147 11.9443 168.493C13.3195 168.839 14.5801 169.069 15.9553 169.184C17.2159 169.3 18.2472 169.415 18.9348 169.53C20.6538 169.761 22.029 170.107 23.2896 170.683C24.4356 171.26 25.4669 171.951 26.2691 172.758C27.0713 173.565 27.7589 174.488 28.2173 175.525C28.7903 176.563 29.2487 177.601 29.5925 178.754L17.1013 183.711Z" fill="white"/>
<path d="M152.327 190.398L143.847 174.488L158.86 166.418L167.34 182.328L152.327 190.398ZM139.149 165.034C138.576 163.996 137.659 163.305 136.513 162.959C135.252 162.613 133.877 162.382 132.273 162.382C130.668 162.382 128.835 162.382 127.001 162.498C125.168 162.613 123.22 162.498 121.271 162.382C117.375 162.037 114.166 160.884 111.645 158.924C109.124 156.964 107.061 154.427 105.457 151.315C103.509 147.741 102.477 144.282 102.363 141.054C102.248 137.826 102.821 134.943 103.967 132.292C105.113 129.64 106.832 127.219 109.009 125.144C111.187 123.068 113.479 121.339 115.885 120.071C120.584 117.535 125.282 116.382 129.981 116.728C134.794 116.958 139.034 118.572 142.816 121.685L135.596 136.442C135.023 136.212 134.221 135.866 133.533 135.405C132.731 134.943 131.929 134.597 130.898 134.252C129.981 133.906 128.95 133.79 127.804 133.79C126.772 133.79 125.626 134.136 124.48 134.713C122.876 135.52 121.844 136.673 121.157 138.171C120.469 139.67 120.469 141.169 121.271 142.668C121.959 144.051 123.105 144.974 124.709 145.665C126.314 146.242 127.918 146.703 129.752 146.818C131.585 147.049 133.304 147.049 135.023 147.049C136.742 146.934 138.003 146.934 138.92 146.934C141.097 146.934 143.045 147.164 144.649 147.741C146.254 148.317 147.629 149.009 148.775 149.931C149.921 150.853 150.952 151.891 151.755 153.159C152.557 154.427 153.359 155.696 154.161 157.079L139.149 165.034Z" fill="white"/>
<path d="M40.1356 60.6967C39.5626 62.0802 39.5626 63.579 40.2502 64.9625C40.9378 66.4612 41.8546 67.96 43.1151 69.6894C44.3757 71.3034 45.8655 73.0328 47.4699 74.8774C49.0742 76.6068 50.564 78.5667 51.9392 80.6419C54.8042 84.9076 56.1793 88.9428 56.2939 92.978C56.4085 97.0131 55.6063 101.164 53.8874 105.314C51.9392 110.156 49.418 113.961 46.3239 116.612C43.2297 119.264 39.9064 121.109 36.3539 122.031C32.8013 122.953 29.1342 123.299 25.3524 122.838C21.5707 122.377 18.1327 121.455 14.8094 120.186C8.62105 117.65 3.69333 113.845 0.0261916 108.888C-3.64095 103.931 -5.47452 98.3966 -5.58911 92.1709L14.6948 87.444C14.924 88.2511 15.1532 89.2887 15.3823 90.4416C15.6115 91.5945 15.8408 92.7474 16.4138 94.0156C16.8722 95.1685 17.5597 96.3214 18.4765 97.4743C19.3933 98.5119 20.5393 99.4342 22.1437 100.011C24.2064 100.818 26.2692 101.048 28.332 100.472C30.3947 99.8954 31.7699 98.6272 32.5721 96.6672C33.2597 94.8226 33.3743 92.8627 32.6867 90.9027C31.9991 88.8275 31.0823 86.8676 29.8217 84.9076C28.5612 82.9477 27.186 81.2184 25.8108 79.6043C24.4356 77.9902 23.2897 76.7221 22.6021 75.7997C20.7685 73.6092 19.5079 71.534 18.7057 69.4588C17.9035 67.3836 17.5597 65.4236 17.4451 63.579C17.4451 61.7343 17.6743 59.7744 18.2473 57.9298C18.8203 56.0851 19.3933 54.2405 20.1955 52.3958L40.1356 60.6967ZM54.3458 27.1473L45.6363 48.476L25.5816 40.1751L34.2911 18.8464L54.3458 27.1473Z" fill="white"/>
<path d="M20.3097 327.824L8.16228 307.533L27.1856 296.004L39.333 316.295L20.3097 327.824ZM1.5156 295.658C0.713414 294.39 -0.432574 293.467 -2.03695 293.121C-3.64132 292.776 -5.47489 292.545 -7.65225 292.66C-9.82962 292.776 -12.1216 292.891 -14.5281 293.121C-16.9347 293.352 -19.4559 293.352 -21.977 293.237C-27.1339 293.006 -31.3741 291.623 -34.812 289.317C-38.1354 286.896 -41.0003 283.783 -43.4069 279.863C-46.1573 275.251 -47.647 270.87 -47.9908 266.72C-48.3346 262.57 -47.7616 258.65 -46.3865 255.191C-45.0113 251.617 -42.9485 248.504 -40.3127 245.622C-37.677 242.74 -34.812 240.434 -31.7179 238.589C-25.8734 235.015 -19.7997 233.286 -13.4968 233.286C-7.19386 233.286 -1.57856 235.246 3.57836 238.935L-4.9019 258.534C-5.70409 258.304 -6.62087 257.843 -7.76686 257.266C-8.79824 256.69 -9.94422 256.229 -11.2048 255.883C-12.4654 255.537 -13.8406 255.422 -15.2157 255.422C-16.5909 255.537 -18.0807 255.998 -19.5705 256.805C-21.5187 257.958 -22.8938 259.572 -23.696 261.532C-24.4982 263.492 -24.3836 265.452 -23.2376 267.412C-22.2062 269.141 -20.6018 270.409 -18.5391 271.101C-16.4763 271.793 -14.1844 272.254 -11.8924 272.369C-9.48584 272.484 -7.30848 272.484 -5.13111 272.254C-2.95375 272.023 -1.23478 271.908 -0.0888002 271.908C2.77616 271.677 5.29732 271.908 7.47469 272.6C9.65205 273.176 11.4856 274.099 13.09 275.251C14.6944 276.404 16.0696 277.788 17.2155 279.287C18.3615 280.901 19.5075 282.515 20.5389 284.244L1.5156 295.658Z" fill="white"/>
<path d="M52.8555 216.684L48.5008 225.331L40.3643 221.18L44.719 212.533L52.8555 216.684ZM45.7504 230.403C45.5212 230.98 45.4066 231.556 45.6358 232.248C45.865 232.94 46.2088 233.632 46.6672 234.323C47.1256 235.015 47.6986 235.822 48.2715 236.629C48.8445 237.436 49.4175 238.243 49.9905 239.165C51.0219 241.01 51.4803 242.855 51.4803 244.469C51.3657 246.198 50.9073 247.928 50.1051 249.542C49.0737 251.502 47.9278 253 46.5526 254.038C45.1774 255.076 43.6876 255.767 42.1979 255.998C40.7081 256.228 39.1037 256.228 37.4993 255.998C35.895 255.652 34.5198 255.191 33.1446 254.499C30.6234 253.231 28.6753 251.502 27.3001 249.311C25.925 247.121 25.352 244.699 25.4666 242.048L34.176 240.78C34.2906 241.125 34.2906 241.587 34.4052 242.048C34.4052 242.509 34.5198 243.085 34.749 243.547C34.8636 244.123 35.2074 244.584 35.4366 245.045C35.7804 245.506 36.2388 245.968 36.9264 246.198C37.7285 246.659 38.6453 246.775 39.4475 246.659C40.3643 246.544 40.9373 245.968 41.3957 245.161C41.7395 244.469 41.8541 243.547 41.6249 242.739C41.3957 241.817 41.0519 241.01 40.5935 240.088C40.1351 239.281 39.5621 238.474 39.1037 237.667C38.5307 236.975 38.1869 236.399 37.8431 235.937C37.1555 235.015 36.6972 233.977 36.3534 233.17C36.1242 232.248 36.0096 231.441 36.0096 230.634C36.0096 229.827 36.2388 229.02 36.468 228.328C36.8118 227.521 37.041 226.829 37.4993 226.022L45.7504 230.403Z" fill="white"/>
<path d="M81.2759 238.128L83.9117 252.078L70.8475 254.614L68.2118 240.664L81.2759 238.128ZM85.2868 260.148C85.516 261.07 85.9745 261.762 86.7766 262.339C87.5788 262.915 88.6102 263.376 89.8708 263.722C91.1313 264.183 92.3919 264.529 93.7671 264.875C95.1423 265.221 96.632 265.682 98.0072 266.374C100.872 267.527 103.05 269.256 104.425 271.216C105.8 273.291 106.831 275.597 107.29 278.364C107.863 281.477 107.863 284.359 107.175 286.78C106.487 289.201 105.456 291.276 103.852 293.006C102.362 294.735 100.528 296.119 98.4656 297.156C96.4028 298.194 94.3401 298.886 92.1627 299.347C88.1518 300.154 84.3701 299.923 80.8175 298.54C77.265 297.272 74.5147 294.966 72.3373 291.853L81.1613 282.63C81.6197 282.976 81.9635 283.437 82.5365 283.898C82.9949 284.474 83.5679 284.935 84.2555 285.397C84.9431 285.858 85.6306 286.204 86.4328 286.434C87.235 286.665 88.1518 286.665 89.1832 286.55C90.5584 286.319 91.5898 285.627 92.5065 284.705C93.4233 283.783 93.6525 282.63 93.4233 281.361C93.1941 280.209 92.6211 279.171 91.5897 278.364C90.5583 277.557 89.4124 276.865 88.0372 276.289C86.7766 275.712 85.4014 275.251 84.1409 274.905C82.8803 274.559 81.9635 274.329 81.2759 274.098C79.5569 273.637 78.1818 272.945 77.1504 272.138C76.119 271.331 75.2022 270.524 74.5146 269.487C73.8271 268.564 73.3687 267.527 73.0249 266.374C72.6811 265.221 72.4519 264.068 72.2227 262.915L85.2868 260.148Z" fill="white"/>
<path d="M111.873 227.983C112.217 227.752 112.446 227.291 112.446 226.83C112.446 226.369 112.446 225.792 112.332 225.216C112.217 224.639 112.103 223.948 111.988 223.256C111.873 222.564 111.759 221.872 111.644 221.065C111.53 219.567 111.759 218.298 112.332 217.145C112.905 216.108 113.707 215.07 114.738 214.263C115.999 213.226 117.145 212.649 118.405 212.419C119.551 212.188 120.697 212.188 121.843 212.419C122.875 212.649 123.906 213.226 124.823 213.802C125.74 214.494 126.542 215.185 127.229 216.108C128.49 217.722 129.178 219.451 129.407 221.296C129.636 223.141 129.292 224.87 128.375 226.484L122.416 224.755C122.416 224.524 122.531 224.178 122.646 223.832C122.76 223.486 122.875 223.141 122.875 222.795C122.875 222.449 122.875 221.988 122.875 221.642C122.76 221.181 122.646 220.835 122.302 220.374C121.843 219.797 121.385 219.451 120.812 219.336C120.239 219.221 119.666 219.336 119.093 219.682C118.635 220.028 118.291 220.604 118.176 221.181C118.062 221.872 118.062 222.449 118.062 223.141C118.062 223.832 118.176 224.524 118.291 225.1C118.405 225.677 118.52 226.253 118.635 226.599C118.749 227.406 118.864 228.213 118.749 228.79C118.635 229.481 118.52 230.058 118.176 230.519C117.947 230.98 117.603 231.441 117.145 231.903C116.686 232.248 116.343 232.71 115.884 233.055L111.873 227.983ZM103.278 234.67L108.665 230.404L112.676 235.592L107.289 239.858L103.278 234.67Z" fill="white"/>
<path d="M48.5007 298.194C48.5007 297.618 48.3861 297.156 47.9277 296.695C47.4693 296.234 47.0109 295.773 46.3233 295.427C45.6357 294.966 44.9481 294.505 44.1459 294.159C43.3438 293.698 42.6562 293.237 41.854 292.66C40.3642 291.507 39.3328 290.239 38.8744 288.74C38.416 287.357 38.1868 285.743 38.3014 284.129C38.416 282.169 38.8744 280.555 39.6766 279.171C40.4788 277.903 41.3956 276.865 42.5416 276.058C43.6876 275.251 44.9481 274.79 46.3233 274.444C47.6985 274.098 49.0737 274.098 50.3342 274.098C52.8554 274.329 55.0328 275.021 56.8664 276.404C58.6999 277.788 60.0751 279.517 60.7627 281.708L54.116 285.743C53.8868 285.512 53.7722 285.166 53.543 284.82C53.3138 284.474 53.0846 284.013 52.7408 283.667C52.397 283.322 52.0532 282.976 51.5948 282.745C51.1364 282.515 50.6781 282.284 49.9905 282.284C49.1883 282.169 48.3861 282.399 47.6985 282.86C47.0109 283.322 46.6671 283.898 46.6671 284.705C46.6671 285.397 46.7817 286.089 47.3547 286.78C47.8131 287.472 48.3861 288.048 49.0737 288.51C49.7613 289.086 50.4489 289.547 51.1364 289.893C51.824 290.239 52.397 290.585 52.7408 290.815C53.6576 291.392 54.3452 291.968 54.9182 292.545C55.4912 293.237 55.835 293.813 56.0642 294.505C56.2934 295.196 56.408 295.888 56.408 296.58C56.408 297.272 56.408 298.079 56.408 298.77L48.5007 298.194ZM47.4693 311.798L48.0423 303.151L56.1788 303.728L55.6058 312.375L47.4693 311.798Z" fill="white"/>
<path d="M3.2348 353.418L-8.68344 346.039L-1.80755 334.741L9.99609 342.119L3.2348 353.418ZM-15.4447 341.543C-16.2469 341.082 -17.0491 340.966 -18.0805 341.197C-18.9973 341.428 -20.0287 341.889 -21.1746 342.465C-22.3206 343.042 -23.4666 343.733 -24.6126 344.54C-25.8732 345.347 -27.1337 346.039 -28.5089 346.616C-31.2593 347.884 -33.895 348.345 -36.3016 347.999C-38.7081 347.653 -41.1147 346.731 -43.4067 345.347C-46.157 343.618 -48.1052 341.773 -49.3658 339.698C-50.6264 337.623 -51.4286 335.432 -51.6578 333.127C-51.887 330.936 -51.6578 328.63 -51.0848 326.44C-50.5118 324.249 -49.595 322.174 -48.449 320.329C-46.2716 316.871 -43.6359 314.219 -40.3125 312.49C-36.9892 310.76 -33.5512 310.184 -29.7695 310.76L-28.9673 323.442C-29.4257 323.558 -30.1133 323.558 -30.8009 323.558C-31.4885 323.558 -32.1761 323.673 -32.9782 323.788C-33.7804 323.903 -34.468 324.249 -35.1556 324.71C-35.8432 325.172 -36.5308 325.748 -36.9892 326.67C-37.6768 327.823 -38.0206 329.091 -37.906 330.36C-37.7914 331.628 -37.2184 332.665 -36.0724 333.357C-35.041 333.934 -33.895 334.164 -32.6345 334.049C-31.3739 333.818 -30.1133 333.473 -28.7381 332.896C-27.4775 332.32 -26.217 331.628 -25.1856 330.936C-24.0396 330.244 -23.2374 329.668 -22.6644 329.322C-21.1746 328.4 -19.7994 327.823 -18.5389 327.593C-17.2783 327.362 -16.0177 327.247 -14.8717 327.477C-13.7258 327.593 -12.6944 327.939 -11.5484 328.515C-10.517 328.976 -9.48561 329.553 -8.45423 330.244L-15.4447 341.543Z" fill="white"/>
</g>
</svg>
