<svg width="253" height="324" viewBox="0 0 253 324" fill="none" xmlns="http://www.w3.org/2000/svg">
<path opacity="0.05" fill-rule="evenodd" clip-rule="evenodd" d="M235.755 125.859L219.718 153.646L188.31 207.536C177.181 225.896 171.209 240.087 154.011 244.275C124.344 251.832 88.7098 261.076 58.1971 268.964C53.1202 263.233 46.234 259.381 38.6975 258.056C31.1609 256.731 23.4341 258.014 16.8175 261.689C10.2008 265.363 5.09835 271.206 2.36878 278.233C-0.360799 285.26 -0.550825 293.042 1.8307 300.27C4.21221 307.497 9.01987 313.729 15.4445 317.917C21.8692 322.104 29.5186 323.992 37.1053 323.261C44.6921 322.531 51.753 319.227 57.0997 313.906C62.4465 308.585 65.7525 301.571 66.4616 294.046C98.7851 285.69 132.351 277.46 162.674 268.335C175.564 264.066 191.209 257.199 202.161 235.042L257.818 138.602L337.362 0.775376L302.724 9.7297L235.755 125.859ZM49.4873 299.792C47.6811 302.926 44.9698 305.444 41.6964 307.027C38.423 308.611 34.7345 309.189 31.0973 308.688C27.4602 308.188 24.0377 306.631 21.2629 304.215C18.488 301.799 16.4854 298.633 15.5083 295.116C14.5311 291.6 14.6234 287.891 15.7733 284.459C16.9233 281.027 19.0794 278.026 21.9688 275.835C24.8582 273.645 28.3512 272.363 32.0061 272.152C35.6609 271.942 39.3135 272.812 42.5017 274.652C46.7746 277.12 49.9103 281.154 51.2195 285.868C52.5286 290.582 51.9039 295.59 49.4829 299.79L49.4873 299.792Z" fill="white"/>
</svg>
