<svg width="152" height="146" viewBox="0 0 152 146" fill="none" xmlns="http://www.w3.org/2000/svg">
<path opacity="0.05" fill-rule="evenodd" clip-rule="evenodd" d="M-15.8975 86.6888L-1.93628 72.7221L25.3233 45.6835C34.8653 36.5397 40.676 29.0534 51.5699 29.3043C70.4144 29.5396 93.0757 29.7224 112.476 29.8956C114.582 34.1125 118.063 37.5007 122.334 39.4899C126.604 41.4791 131.403 41.9479 135.923 40.8174C140.442 39.6868 144.407 37.026 147.149 33.2827C149.892 29.5394 151.244 24.9422 150.979 20.2647C150.714 15.5873 148.848 11.1152 145.694 7.6011C142.541 4.08705 138.293 1.74551 133.665 0.970649C129.038 0.195762 124.313 1.03487 120.286 3.34667C116.259 5.65848 113.176 9.30187 111.556 13.6637C91.0049 13.4802 69.7347 13.0241 50.2506 13.6166C41.906 14.1006 31.509 15.6899 21.468 27.1197L-26.9876 75.5943L-96.2382 144.872L-74.2151 145.069L-15.8975 86.6888ZM122.565 12.9523C124.138 11.3768 126.151 10.3119 128.35 9.8921C130.549 9.4723 132.834 9.71652 134.917 10.5939C137 11.4713 138.787 12.9424 140.052 14.8211C141.318 16.6999 142.004 18.902 142.025 21.1488C142.046 23.3956 141.401 25.5863 140.17 27.4438C138.94 29.3014 137.18 30.7422 135.113 31.5842C133.046 32.4262 130.764 32.6315 128.558 32.1742C126.351 31.7169 124.317 30.6174 122.715 29.0149C120.567 26.8664 119.345 23.9676 119.317 20.9559C119.29 17.9442 120.459 15.0662 122.567 12.9545L122.565 12.9523Z" fill="white"/>
</svg>
