<svg width="244" height="413" viewBox="0 0 244 413" fill="none" xmlns="http://www.w3.org/2000/svg">
<path opacity="0.05" fill-rule="evenodd" clip-rule="evenodd" d="M-38.576 212.485L-16.1056 190.006L27.7684 146.488C43.1261 131.771 52.4785 119.722 70.0121 120.126C100.342 120.504 136.815 120.799 168.04 121.077C171.429 127.864 177.032 133.318 183.906 136.519C190.779 139.721 198.503 140.475 205.777 138.656C213.052 136.836 219.433 132.554 223.846 126.529C228.26 120.504 230.437 113.105 230.01 105.577C229.584 98.0483 226.58 90.8505 221.505 85.1946C216.429 79.5388 209.592 75.7701 202.144 74.523C194.696 73.2758 187.091 74.6263 180.61 78.3472C174.129 82.068 169.167 87.932 166.56 94.9523C133.482 94.657 99.2482 93.9229 67.8887 94.8764C54.4582 95.6555 37.7242 98.2135 21.5634 116.61L-56.4255 194.629L-167.884 306.13L-132.438 306.447L-38.576 212.485ZM184.278 93.8072C186.81 91.2716 190.05 89.5576 193.589 88.8819C197.127 88.2063 200.806 88.5993 204.158 90.0115C207.511 91.4236 210.387 93.7913 212.424 96.8152C214.46 99.839 215.565 103.383 215.599 106.999C215.633 110.616 214.594 114.142 212.613 117.131C210.633 120.121 207.8 122.44 204.473 123.795C201.146 125.15 197.475 125.481 193.923 124.745C190.371 124.009 187.099 122.239 184.519 119.66C181.062 116.202 179.095 111.536 179.051 106.689C179.006 101.842 180.888 97.2096 184.281 93.8108L184.278 93.8072Z" fill="white"/>
<path opacity="0.05" fill-rule="evenodd" clip-rule="evenodd" d="M-15.8975 254.689L-1.93628 240.722L25.3233 213.683C34.8653 204.54 40.676 197.053 51.5699 197.304C70.4144 197.54 93.0757 197.722 112.476 197.896C114.582 202.113 118.063 205.501 122.334 207.49C126.604 209.479 131.403 209.948 135.923 208.817C140.442 207.687 144.407 205.026 147.149 201.283C149.892 197.539 151.244 192.942 150.979 188.265C150.714 183.587 148.848 179.115 145.694 175.601C142.541 172.087 138.293 169.746 133.665 168.971C129.038 168.196 124.313 169.035 120.286 171.347C116.259 173.658 113.176 177.302 111.556 181.664C91.0049 181.48 69.7347 181.024 50.2506 181.617C41.906 182.101 31.509 183.69 21.468 195.12L-26.9876 243.594L-96.2382 312.872L-74.2151 313.069L-15.8975 254.689ZM122.565 180.952C124.138 179.377 126.151 178.312 128.35 177.892C130.549 177.472 132.834 177.717 134.917 178.594C137 179.471 138.787 180.942 140.052 182.821C141.318 184.7 142.004 186.902 142.025 189.149C142.046 191.396 141.401 193.586 140.17 195.444C138.94 197.301 137.18 198.742 135.113 199.584C133.046 200.426 130.764 200.632 128.558 200.174C126.351 199.717 124.317 198.617 122.715 197.015C120.567 194.866 119.345 191.968 119.317 188.956C119.29 185.944 120.459 183.066 122.567 180.954L122.565 180.952Z" fill="white"/>
</svg>
