<svg width="16" height="12" viewBox="0 0 16 12" fill="none" xmlns="http://www.w3.org/2000/svg">
<path d="M15.5303 6.04498C15.8232 5.75209 15.8232 5.27721 15.5303 4.98432L10.7574 0.211349C10.4645 -0.081544 9.98959 -0.0815441 9.6967 0.211349C9.40381 0.504243 9.40381 0.979116 9.6967 1.27201L13.9393 5.51465L9.6967 9.75729C9.40381 10.0502 9.40381 10.5251 9.6967 10.818C9.98959 11.1108 10.4645 11.1108 10.7574 10.818L15.5303 6.04498ZM-1.31134e-07 6.26465L15 6.26465L15 4.76465L1.31134e-07 4.76465L-1.31134e-07 6.26465Z" fill="url(#paint0_linear_125_7732)"/>
<defs>
<linearGradient id="paint0_linear_125_7732" x1="6.8065e-08" y1="5.80153" x2="13.6762" y2="10.3009" gradientUnits="userSpaceOnUse">
<stop stop-color="#CBCBCB"/>
<stop offset="1" stop-color="#F8F8F8"/>
</linearGradient>
</defs>
</svg>
