<svg width="30" height="30" viewBox="0 0 30 30" fill="none" xmlns="http://www.w3.org/2000/svg">
<path d="M28.077 5.38424H1.92311C0.860742 5.38424 0 4.5235 0 3.46119C0 2.39889 0.860742 1.53809 1.92311 1.53809H28.077C29.1393 1.53809 30 2.39883 30 3.46119C30 4.52355 29.1393 5.38424 28.077 5.38424Z" fill="#BDBDBD"/>
<path d="M17.3077 16.9233H1.92311C0.860742 16.9233 0 16.0625 0 15.0002C0 13.9379 0.860742 13.0771 1.92311 13.0771H17.3077C18.37 13.0771 19.2308 13.9379 19.2308 15.0002C19.2308 16.0626 18.37 16.9233 17.3077 16.9233Z" fill="#BDBDBD"/>
<path d="M28.0772 16.9233H25.0003C23.9379 16.9233 23.0771 16.0626 23.0771 15.0002C23.0771 13.9379 23.9379 13.0771 25.0003 13.0771H28.0772C29.1395 13.0771 30.0002 13.9379 30.0002 15.0002C30.0002 16.0626 29.1395 16.9233 28.0772 16.9233Z" fill="#BDBDBD"/>
<path d="M28.077 28.4624H1.92311C0.860742 28.4624 0 27.6016 0 26.5393C0 25.477 0.860742 24.6162 1.92311 24.6162H28.077C29.1393 24.6162 30 25.477 30 26.5393C30 27.6016 29.1393 28.4624 28.077 28.4624Z" fill="#BDBDBD"/>
</svg>
