<svg width="20" height="21" viewBox="0 0 20 21" fill="none" xmlns="http://www.w3.org/2000/svg">
<path d="M18.5141 15.2665L16.0392 12.7058C16.0369 12.7034 16.0346 12.701 16.0322 12.6987C15.3453 12.0117 14.2335 12.0116 13.5465 12.6987L12.4166 13.8285C11.8962 14.3489 11.0539 14.349 10.5335 13.8285C10.5333 13.8283 10.533 13.8281 10.5328 13.8278L6.6034 9.99135C6.08301 9.47096 6.08293 8.62866 6.6034 8.10823L7.73328 6.97835C8.41863 6.29304 8.41863 5.17792 7.73328 4.49261L5.24754 2.00687C4.56219 1.3216 3.44712 1.3216 2.76181 2.00687C2.76157 2.00711 1.93306 2.83566 1.93325 2.83543C1.93306 2.83566 1.85814 2.91054 1.85794 2.91078C-0.61893 5.38761 -0.619828 9.3967 1.85833 11.8749L8.65039 18.574C11.1218 21.0454 15.1241 21.0546 17.6054 18.5827C17.619 18.5702 18.4971 17.7613 18.5102 17.7483C19.1941 17.0642 19.1954 15.9521 18.5141 15.2665ZM3.5904 2.83543C3.81884 2.60699 4.19051 2.60699 4.41895 2.83543L6.90469 5.32116C7.13367 5.55019 7.13371 5.92073 6.90469 6.14976L6.49043 6.56401L3.1761 3.24972L3.5904 2.83543ZM9.47855 17.745L2.68649 11.0459C0.772513 9.1319 0.681732 6.1137 2.36317 4.09394L5.66586 7.39663C4.80083 8.3787 4.8368 9.8819 5.77555 10.8206L9.70566 14.6578C10.645 15.5964 12.1434 15.6351 13.1283 14.7661L16.4307 18.0686C14.391 19.7629 11.391 19.6575 9.47855 17.745ZM17.6885 16.9126L17.2948 17.2754L13.9608 13.9415L14.3751 13.5272C14.6033 13.299 14.9717 13.2983 15.2007 13.5243C15.2053 13.529 17.6769 16.0864 17.6816 16.091C17.9077 16.3172 17.91 16.6836 17.6885 16.9126Z" fill="#F7FBFE"/>
<path d="M10.04 0.434082C9.71644 0.434082 9.4541 0.696425 9.4541 1.01998C9.4541 1.34353 9.71644 1.60588 10.04 1.60588C14.8859 1.60588 18.8284 5.54833 18.8284 10.3943C18.8284 10.7178 19.0907 10.9802 19.4143 10.9802C19.7378 10.9802 20.0002 10.7179 20.0002 10.3943C20.0002 4.88923 15.5455 0.434082 10.04 0.434082Z" fill="#F7FBFE"/>
<path d="M10.04 2.77783C9.71644 2.77783 9.4541 3.04018 9.4541 3.36373C9.4541 3.68728 9.71644 3.94963 10.04 3.94963C13.5937 3.94963 16.4848 6.84075 16.4848 10.3945C16.4848 10.718 16.7472 10.9804 17.0707 10.9804C17.3943 10.9804 17.6566 10.718 17.6566 10.3945C17.6566 6.19466 14.2398 2.77783 10.04 2.77783Z" fill="#F7FBFE"/>
<path d="M10.04 5.12158C9.71644 5.12158 9.4541 5.38392 9.4541 5.70748C9.4541 6.03103 9.71644 6.29338 10.04 6.29338C12.3014 6.29338 14.1412 8.13318 14.1412 10.3946C14.1412 10.7182 14.4036 10.9805 14.7271 10.9805C15.0507 10.9805 15.313 10.7182 15.313 10.3946C15.313 7.48704 12.9476 5.12158 10.04 5.12158Z" fill="#F7FBFE"/>
</svg>
