<svg width="107" height="108" viewBox="0 0 107 108" fill="none" xmlns="http://www.w3.org/2000/svg">
<path fill-rule="evenodd" clip-rule="evenodd" d="M69.8306 17.323C61.927 13.8014 53.0968 12.929 44.6569 14.8358C36.217 16.7427 28.6196 21.3268 22.9978 27.9043C17.376 34.4818 14.031 42.7003 13.4617 51.3342C12.8923 59.9681 15.1292 68.5547 19.8387 75.8135C24.5481 83.0722 31.4778 88.6142 39.5942 91.6128C47.7107 94.6114 56.579 94.906 64.8765 92.4527C73.1741 89.9993 80.4563 84.9295 85.6371 77.9993C90.8179 71.0691 93.6197 62.6499 93.6247 53.9973V49.8981C93.6247 47.4359 95.6208 45.4398 98.083 45.4398C100.545 45.4398 102.541 47.4359 102.541 49.8981V53.9998C102.535 64.5753 99.1109 74.868 92.7788 83.3382C86.4467 91.8084 77.5462 98.0049 67.4047 101.003C57.2633 104.002 46.4242 103.642 36.5041 99.9769C26.584 96.3119 18.1144 89.5384 12.3584 80.6666C6.60243 71.7948 3.86848 61.3001 4.56431 50.7475C5.26015 40.195 9.34848 30.1501 16.2196 22.1109C23.0907 14.0717 32.3764 8.46904 42.6918 6.1384C53.0073 3.80777 63.7997 4.87406 73.4597 9.17827C75.7088 10.1804 76.7196 12.8161 75.7175 15.0652C74.7153 17.3143 72.0797 18.3252 69.8306 17.323Z" fill="url(#paint0_linear_125_9660)"/>
<path fill-rule="evenodd" clip-rule="evenodd" d="M101.234 15.1792C102.976 16.9195 102.977 19.7423 101.237 21.4843L56.6534 66.1122C55.8175 66.949 54.6833 67.4193 53.5005 67.4196C52.3177 67.4199 51.1832 66.9501 50.3468 66.1138L36.9718 52.7388C35.2307 50.9977 35.2307 48.1748 36.9718 46.4337C38.7129 44.6926 41.5358 44.6926 43.2769 46.4337L53.4978 56.6546L94.9286 15.1824C96.6688 13.4404 99.4917 13.439 101.234 15.1792Z" fill="url(#paint1_linear_125_9660)"/>
<defs>
<linearGradient id="paint0_linear_125_9660" x1="4.45801" y1="33.0713" x2="103.516" y2="35.2439" gradientUnits="userSpaceOnUse">
<stop stop-color="#6600FF"/>
<stop offset="1" stop-color="#A358E8"/>
</linearGradient>
<linearGradient id="paint1_linear_125_9660" x1="35.666" y1="29.2361" x2="103.188" y2="31.0858" gradientUnits="userSpaceOnUse">
<stop stop-color="#6600FF"/>
<stop offset="1" stop-color="#A358E8"/>
</linearGradient>
</defs>
</svg>
